<?xml version="1.0" encoding="UTF-8" standalone="no"?>
<!DOCTYPE svg PUBLIC "-//W3C//DTD SVG 1.1//EN"
 "http://www.w3.org/Graphics/SVG/1.1/DTD/svg11.dtd">
<!-- Generated by graphviz version 2.43.0 (0)
 -->
<!-- Title: %3 Pages: 1 -->
<svg width="541pt" height="124pt"
 viewBox="0.00 0.00 541.00 124.00" xmlns="http://www.w3.org/2000/svg" xmlns:xlink="http://www.w3.org/1999/xlink">
<g id="graph0" class="graph" transform="scale(1 1) rotate(0) translate(4 120)">
<title>%3</title>
<polygon fill="white" stroke="transparent" points="-4,4 -4,-120 537,-120 537,4 -4,4"/>
<!-- Source -->
<g id="node1" class="node">
<title>Source</title>
<polygon fill="none" stroke="black" points="86,-90 0,-90 0,-54 86,-54 86,-90"/>
<text text-anchor="middle" x="43" y="-68.3" font-family="Times,serif" font-size="14.00">Java Files</text>
</g>
<!-- TypeData -->
<g id="node2" class="node">
<title>TypeData</title>
<polygon fill="none" stroke="black" points="290,-90 201,-90 201,-54 290,-54 290,-90"/>
<text text-anchor="middle" x="245.5" y="-68.3" font-family="Times,serif" font-size="14.00">Type Data</text>
</g>
<!-- Source&#45;&gt;TypeData -->
<g id="edge1" class="edge">
<title>Source&#45;&gt;TypeData</title>
<path fill="none" stroke="black" d="M86.03,-72C116.39,-72 157.65,-72 190.46,-72"/>
<polygon fill="black" stroke="black" points="190.79,-75.5 200.79,-72 190.79,-68.5 190.79,-75.5"/>
<text text-anchor="middle" x="143.5" y="-90.8" font-family="Times,serif" font-size="14.00">Annotation</text>
<text text-anchor="middle" x="143.5" y="-75.8" font-family="Times,serif" font-size="14.00">Processor</text>
</g>
<!-- Generated -->
<g id="node4" class="node">
<title>Generated</title>
<polygon fill="none" stroke="black" points="533,-62 401,-62 401,-26 533,-26 533,-62"/>
<text text-anchor="middle" x="467" y="-40.3" font-family="Times,serif" font-size="14.00">Generated Code</text>
</g>
<!-- TypeData&#45;&gt;Generated -->
<g id="edge2" class="edge">
<title>TypeData&#45;&gt;Generated:nw</title>
<path fill="none" stroke="black" d="M290.07,-83.06C321.99,-88.55 364.58,-90.07 393.29,-68.66"/>
<polygon fill="black" stroke="black" points="395.72,-71.19 401,-62 391.14,-65.89 395.72,-71.19"/>
<text text-anchor="middle" x="345.5" y="-104.8" font-family="Times,serif" font-size="14.00">Translator</text>
<text text-anchor="middle" x="345.5" y="-89.8" font-family="Times,serif" font-size="14.00">Compiler</text>
</g>
<!-- Data -->
<g id="node3" class="node">
<title>Data</title>
<polygon fill="none" stroke="black" points="290,-36 201,-36 201,0 290,0 290,-36"/>
<text text-anchor="middle" x="245.5" y="-14.3" font-family="Times,serif" font-size="14.00">Data Files</text>
</g>
<!-- Data&#45;&gt;Generated -->
<g id="edge3" class="edge">
<title>Data&#45;&gt;Generated:sw</title>
<path fill="none" stroke="black" d="M290.01,-6.16C322.17,-0.07 365.23,2.19 394.22,-19.3"/>
<polygon fill="black" stroke="black" points="392.14,-22.12 402,-26 396.71,-16.82 392.14,-22.12"/>
<text text-anchor="middle" x="345.5" y="-31.8" font-family="Times,serif" font-size="14.00">Translator</text>
<text text-anchor="middle" x="345.5" y="-16.8" font-family="Times,serif" font-size="14.00">Compiler</text>
</g>
</g>
</svg>
