<?xml version="1.0" encoding="UTF-8" standalone="no"?>
<!DOCTYPE svg PUBLIC "-//W3C//DTD SVG 1.1//EN"
 "http://www.w3.org/Graphics/SVG/1.1/DTD/svg11.dtd">
<!-- Generated by graphviz version 2.43.0 (0)
 -->
<!-- Title: %3 Pages: 1 -->
<svg width="468pt" height="116pt"
 viewBox="0.00 0.00 468.00 116.00" xmlns="http://www.w3.org/2000/svg" xmlns:xlink="http://www.w3.org/1999/xlink">
<g id="graph0" class="graph" transform="scale(1 1) rotate(0) translate(4 112)">
<title>%3</title>
<polygon fill="white" stroke="transparent" points="-4,4 -4,-112 464,-112 464,4 -4,4"/>
<!-- Source -->
<g id="node1" class="node">
<title>Source</title>
<polygon fill="none" stroke="black" points="71,-90 0,-90 0,-54 71,-54 71,-90"/>
<text text-anchor="middle" x="35.5" y="-68.9" font-family="Helvetica,sans-Serif" font-size="12.00">Java Files</text>
</g>
<!-- TypeData -->
<g id="node2" class="node">
<title>TypeData</title>
<polygon fill="none" stroke="black" points="249,-90 173,-90 173,-54 249,-54 249,-90"/>
<text text-anchor="middle" x="211" y="-68.9" font-family="Helvetica,sans-Serif" font-size="12.00">Type Data</text>
</g>
<!-- Source&#45;&gt;TypeData -->
<g id="edge1" class="edge">
<title>Source&#45;&gt;TypeData</title>
<path fill="none" stroke="black" d="M71.19,-72C97.44,-72 133.77,-72 162.68,-72"/>
<polygon fill="black" stroke="black" points="162.97,-75.5 172.97,-72 162.97,-68.5 162.97,-75.5"/>
<text text-anchor="middle" x="122" y="-88.4" font-family="Helvetica,sans-Serif" font-size="12.00">Annotation</text>
<text text-anchor="middle" x="122" y="-75.4" font-family="Helvetica,sans-Serif" font-size="12.00">Processor</text>
</g>
<!-- Generated -->
<g id="node4" class="node">
<title>Generated</title>
<polygon fill="none" stroke="black" points="460,-61 345,-61 345,-25 460,-25 460,-61"/>
<text text-anchor="middle" x="402.5" y="-39.9" font-family="Helvetica,sans-Serif" font-size="12.00">Generated Code</text>
</g>
<!-- TypeData&#45;&gt;Generated -->
<g id="edge2" class="edge">
<title>TypeData&#45;&gt;Generated:nw</title>
<path fill="none" stroke="black" d="M249.19,-80.59C276.33,-84.69 312.56,-85.38 337.37,-67.48"/>
<polygon fill="black" stroke="black" points="339.65,-70.14 345,-61 335.11,-64.81 339.65,-70.14"/>
<text text-anchor="middle" x="297" y="-98.4" font-family="Helvetica,sans-Serif" font-size="12.00">Translator</text>
<text text-anchor="middle" x="297" y="-85.4" font-family="Helvetica,sans-Serif" font-size="12.00">Compiler</text>
</g>
<!-- Data -->
<g id="node3" class="node">
<title>Data</title>
<polygon fill="none" stroke="black" points="248,-36 174,-36 174,0 248,0 248,-36"/>
<text text-anchor="middle" x="211" y="-14.9" font-family="Helvetica,sans-Serif" font-size="12.00">Data Files</text>
</g>
<!-- Data&#45;&gt;Generated -->
<g id="edge3" class="edge">
<title>Data&#45;&gt;Generated:sw</title>
<path fill="none" stroke="black" d="M248.11,-8.08C275.68,-2.7 313.14,-0.34 338.66,-18.4"/>
<polygon fill="black" stroke="black" points="336.6,-21.23 346.5,-25 341.11,-15.88 336.6,-21.23"/>
<text text-anchor="middle" x="297" y="-28.4" font-family="Helvetica,sans-Serif" font-size="12.00">Translator</text>
<text text-anchor="middle" x="297" y="-15.4" font-family="Helvetica,sans-Serif" font-size="12.00">Compiler</text>
</g>
</g>
</svg>
