<?xml version="1.0" encoding="UTF-8" standalone="no"?>
<!DOCTYPE svg PUBLIC "-//W3C//DTD SVG 1.1//EN"
 "http://www.w3.org/Graphics/SVG/1.1/DTD/svg11.dtd">
<!-- Generated by graphviz version 2.43.0 (0)
 -->
<!-- Title: %3 Pages: 1 -->
<svg width="1275pt" height="1114pt"
 viewBox="0.00 0.00 1274.50 1114.00" xmlns="http://www.w3.org/2000/svg" xmlns:xlink="http://www.w3.org/1999/xlink">
<g id="graph0" class="graph" transform="scale(1 1) rotate(0) translate(4 1110)">
<title>%3</title>
<polygon fill="white" stroke="transparent" points="-4,4 -4,-1110 1270.5,-1110 1270.5,4 -4,4"/>
<!-- IsAnnotatedField -->
<g id="node1" class="node">
<title>IsAnnotatedField</title>
<polygon fill="none" stroke="black" points="832,-1106 602,-1072 832,-1038 1062,-1072 832,-1106"/>
<text text-anchor="middle" x="832" y="-1075.4" font-family="Helvetica,sans-Serif" font-size="12.00">Is it in a field</text>
<text text-anchor="middle" x="832" y="-1062.4" font-family="Helvetica,sans-Serif" font-size="12.00">annotated with @DefaultConstruct?</text>
</g>
<!-- WhatType -->
<g id="node2" class="node">
<title>WhatType</title>
<polygon fill="none" stroke="black" points="672,-973 577.96,-955 672,-937 766.04,-955 672,-973"/>
<text text-anchor="middle" x="672" y="-951.9" font-family="Helvetica,sans-Serif" font-size="12.00">What type is it?</text>
</g>
<!-- IsAnnotatedField&#45;&gt;WhatType -->
<g id="edge7" class="edge">
<title>IsAnnotatedField&#45;&gt;WhatType</title>
<path fill="none" stroke="black" d="M793.68,-1043.45C764.44,-1022.44 724.9,-994.02 698.94,-975.36"/>
<polygon fill="black" stroke="black" points="700.85,-972.43 690.69,-969.43 696.76,-978.11 700.85,-972.43"/>
<text text-anchor="middle" x="765.5" y="-1010.4" font-family="Helvetica,sans-Serif" font-size="12.00">No</text>
</g>
<!-- FieldHasComputeFunction -->
<g id="node3" class="node">
<title>FieldHasComputeFunction</title>
<polygon fill="none" stroke="black" points="993,-989 865,-955 993,-921 1121,-955 993,-989"/>
<text text-anchor="middle" x="993" y="-958.4" font-family="Helvetica,sans-Serif" font-size="12.00">Is there a</text>
<text text-anchor="middle" x="993" y="-945.4" font-family="Helvetica,sans-Serif" font-size="12.00">compute function?</text>
</g>
<!-- IsAnnotatedField&#45;&gt;FieldHasComputeFunction -->
<g id="edge1" class="edge">
<title>IsAnnotatedField&#45;&gt;FieldHasComputeFunction</title>
<path fill="none" stroke="black" d="M870.56,-1043.45C894.8,-1026.14 926.08,-1003.8 950.95,-986.03"/>
<polygon fill="black" stroke="black" points="953.02,-988.86 959.12,-980.2 948.95,-983.16 953.02,-988.86"/>
<text text-anchor="middle" x="928" y="-1010.4" font-family="Helvetica,sans-Serif" font-size="12.00">Yes</text>
</g>
<!-- IsInTailrec -->
<g id="node5" class="node">
<title>IsInTailrec</title>
<polygon fill="none" stroke="black" points="468,-872 284,-825 468,-778 652,-825 468,-872"/>
<text text-anchor="middle" x="468" y="-834.9" font-family="Helvetica,sans-Serif" font-size="12.00">Is it in a field</text>
<text text-anchor="middle" x="468" y="-821.9" font-family="Helvetica,sans-Serif" font-size="12.00">referencing a message type</text>
<text text-anchor="middle" x="468" y="-808.9" font-family="Helvetica,sans-Serif" font-size="12.00">by tail recursion**?</text>
</g>
<!-- WhatType&#45;&gt;IsInTailrec -->
<g id="edge8" class="edge">
<title>WhatType&#45;&gt;IsInTailrec</title>
<path fill="none" stroke="black" d="M650.94,-940.78C622.42,-922.89 570.36,-890.23 529.05,-864.31"/>
<polygon fill="black" stroke="black" points="530.74,-861.24 520.41,-858.89 527.02,-867.16 530.74,-861.24"/>
<text text-anchor="middle" x="615.5" y="-893.4" font-family="Helvetica,sans-Serif" font-size="12.00">Message</text>
</g>
<!-- UseFirstEnumValueAttach -->
<g id="node21" class="node">
<title>UseFirstEnumValueAttach</title>
<ellipse fill="black" stroke="black" cx="672" cy="-825" rx="1.8" ry="1.8"/>
</g>
<!-- WhatType&#45;&gt;UseFirstEnumValueAttach -->
<g id="edge22" class="edge">
<title>WhatType&#45;&gt;UseFirstEnumValueAttach</title>
<path fill="none" stroke="black" d="M672,-936.74C672,-903.98 672,-835.32 672,-826.86"/>
</g>
<!-- FieldIsMessageType -->
<g id="node4" class="node">
<title>FieldIsMessageType</title>
<polygon fill="none" stroke="black" points="993,-859 886,-825 993,-791 1100,-825 993,-859"/>
<text text-anchor="middle" x="993" y="-828.4" font-family="Helvetica,sans-Serif" font-size="12.00">Is it a</text>
<text text-anchor="middle" x="993" y="-815.4" font-family="Helvetica,sans-Serif" font-size="12.00">message type?</text>
</g>
<!-- FieldHasComputeFunction&#45;&gt;FieldIsMessageType -->
<g id="edge3" class="edge">
<title>FieldHasComputeFunction&#45;&gt;FieldIsMessageType</title>
<path fill="none" stroke="black" d="M993,-920.7C993,-905 993,-886.06 993,-869.27"/>
<polygon fill="black" stroke="black" points="996.5,-869.13 993,-859.13 989.5,-869.13 996.5,-869.13"/>
<text text-anchor="middle" x="1001.5" y="-893.4" font-family="Helvetica,sans-Serif" font-size="12.00">No</text>
</g>
<!-- FieldUseComputeFunction -->
<g id="node10" class="node">
<title>FieldUseComputeFunction</title>
<polygon fill="none" stroke="black" points="1266.5,-843 1117.5,-843 1117.5,-807 1266.5,-807 1266.5,-843"/>
<text text-anchor="middle" x="1192" y="-821.9" font-family="Helvetica,sans-Serif" font-size="12.00">Use compute function</text>
</g>
<!-- FieldHasComputeFunction&#45;&gt;FieldUseComputeFunction -->
<g id="edge2" class="edge">
<title>FieldHasComputeFunction&#45;&gt;FieldUseComputeFunction</title>
<path fill="none" stroke="black" d="M1029.5,-930.52C1065.7,-907.24 1120.81,-871.79 1156.62,-848.76"/>
<polygon fill="black" stroke="black" points="1158.77,-851.54 1165.28,-843.18 1154.98,-845.65 1158.77,-851.54"/>
<text text-anchor="middle" x="1103" y="-893.4" font-family="Helvetica,sans-Serif" font-size="12.00">Yes</text>
</g>
<!-- FieldAssertMessageTypeIsParent -->
<g id="node11" class="node">
<title>FieldAssertMessageTypeIsParent</title>
<polygon fill="none" stroke="black" points="1034.5,-713 911.5,-713 911.5,-677 1034.5,-677 1034.5,-713"/>
<text text-anchor="middle" x="973" y="-698.4" font-family="Helvetica,sans-Serif" font-size="12.00">Assert type is</text>
<text text-anchor="middle" x="973" y="-685.4" font-family="Helvetica,sans-Serif" font-size="12.00">polymorphic base</text>
</g>
<!-- FieldIsMessageType&#45;&gt;FieldAssertMessageTypeIsParent -->
<g id="edge4" class="edge">
<title>FieldIsMessageType&#45;&gt;FieldAssertMessageTypeIsParent</title>
<path fill="none" stroke="black" d="M988.06,-792.36C984.74,-771.15 980.42,-743.5 977.26,-723.27"/>
<polygon fill="black" stroke="black" points="980.68,-722.49 975.68,-713.15 973.77,-723.57 980.68,-722.49"/>
<text text-anchor="middle" x="993" y="-750.4" font-family="Helvetica,sans-Serif" font-size="12.00">Yes</text>
</g>
<!-- FieldUseConstantValue -->
<g id="node13" class="node">
<title>FieldUseConstantValue</title>
<polygon fill="none" stroke="black" points="1163,-713 1053,-713 1053,-677 1163,-677 1163,-713"/>
<text text-anchor="middle" x="1108" y="-698.4" font-family="Helvetica,sans-Serif" font-size="12.00">Use specified</text>
<text text-anchor="middle" x="1108" y="-685.4" font-family="Helvetica,sans-Serif" font-size="12.00">constant value*</text>
</g>
<!-- FieldIsMessageType&#45;&gt;FieldUseConstantValue -->
<g id="edge6" class="edge">
<title>FieldIsMessageType&#45;&gt;FieldUseConstantValue</title>
<path fill="none" stroke="black" d="M1016.27,-798.1C1036.5,-775.59 1065.6,-743.19 1085.58,-720.96"/>
<polygon fill="black" stroke="black" points="1088.41,-723.04 1092.49,-713.27 1083.2,-718.37 1088.41,-723.04"/>
<text text-anchor="middle" x="1069.5" y="-750.4" font-family="Helvetica,sans-Serif" font-size="12.00">No</text>
</g>
<!-- IsPolymorphicParent -->
<g id="node6" class="node">
<title>IsPolymorphicParent</title>
<polygon fill="none" stroke="black" points="382,-729 253,-695 382,-661 511,-695 382,-729"/>
<text text-anchor="middle" x="382" y="-698.4" font-family="Helvetica,sans-Serif" font-size="12.00">Is it a</text>
<text text-anchor="middle" x="382" y="-685.4" font-family="Helvetica,sans-Serif" font-size="12.00">polymorphic base?</text>
</g>
<!-- IsInTailrec&#45;&gt;IsPolymorphicParent -->
<g id="edge10" class="edge">
<title>IsInTailrec&#45;&gt;IsPolymorphicParent</title>
<path fill="none" stroke="black" d="M441.5,-784.55C430.42,-768.07 417.62,-749.02 406.74,-732.82"/>
<polygon fill="black" stroke="black" points="409.4,-730.5 400.91,-724.15 403.59,-734.4 409.4,-730.5"/>
<text text-anchor="middle" x="433.5" y="-750.4" font-family="Helvetica,sans-Serif" font-size="12.00">No</text>
</g>
<!-- Null2 -->
<g id="node20" class="node">
<title>Null2</title>
<polygon fill="none" stroke="black" points="593,-713 529,-713 529,-677 593,-677 593,-713"/>
<text text-anchor="middle" x="561" y="-691.9" font-family="Helvetica,sans-Serif" font-size="12.00">Use null</text>
</g>
<!-- IsInTailrec&#45;&gt;Null2 -->
<g id="edge9" class="edge">
<title>IsInTailrec&#45;&gt;Null2</title>
<path fill="none" stroke="black" d="M496.41,-784.9C511.37,-764.3 529.3,-739.63 542.47,-721.51"/>
<polygon fill="black" stroke="black" points="545.47,-723.33 548.51,-713.18 539.81,-719.22 545.47,-723.33"/>
<text text-anchor="middle" x="533" y="-750.4" font-family="Helvetica,sans-Serif" font-size="12.00">Yes</text>
</g>
<!-- PolymorphicParentHasDefaultConstruct -->
<g id="node7" class="node">
<title>PolymorphicParentHasDefaultConstruct</title>
<polygon fill="none" stroke="black" points="173,-612 0,-578 173,-544 346,-578 173,-612"/>
<text text-anchor="middle" x="173" y="-581.4" font-family="Helvetica,sans-Serif" font-size="12.00">Is the message annotated</text>
<text text-anchor="middle" x="173" y="-568.4" font-family="Helvetica,sans-Serif" font-size="12.00">with @DefaultConstruct?</text>
</g>
<!-- IsPolymorphicParent&#45;&gt;PolymorphicParentHasDefaultConstruct -->
<g id="edge11" class="edge">
<title>IsPolymorphicParent&#45;&gt;PolymorphicParentHasDefaultConstruct</title>
<path fill="none" stroke="black" d="M341.21,-671.55C308.35,-653.48 261.91,-627.92 226.15,-608.25"/>
<polygon fill="black" stroke="black" points="227.75,-605.13 217.3,-603.38 224.38,-611.26 227.75,-605.13"/>
<text text-anchor="middle" x="294" y="-633.4" font-family="Helvetica,sans-Serif" font-size="12.00">Yes</text>
</g>
<!-- IsPolymorphicChild -->
<g id="node8" class="node">
<title>IsPolymorphicChild</title>
<polygon fill="none" stroke="black" points="492,-612 364,-578 492,-544 620,-578 492,-612"/>
<text text-anchor="middle" x="492" y="-581.4" font-family="Helvetica,sans-Serif" font-size="12.00">Is it a</text>
<text text-anchor="middle" x="492" y="-568.4" font-family="Helvetica,sans-Serif" font-size="12.00">polymorphic child?</text>
</g>
<!-- IsPolymorphicParent&#45;&gt;IsPolymorphicChild -->
<g id="edge14" class="edge">
<title>IsPolymorphicParent&#45;&gt;IsPolymorphicChild</title>
<path fill="none" stroke="black" d="M407.24,-667.62C422.78,-651.37 442.85,-630.38 459.57,-612.91"/>
<polygon fill="black" stroke="black" points="462.12,-615.3 466.5,-605.66 457.06,-610.47 462.12,-615.3"/>
<text text-anchor="middle" x="449.5" y="-633.4" font-family="Helvetica,sans-Serif" font-size="12.00">No</text>
</g>
<!-- UsePolymorphicSubtype -->
<g id="node14" class="node">
<title>UsePolymorphicSubtype</title>
<polygon fill="none" stroke="black" points="170,-466 20,-466 20,-430 170,-430 170,-466"/>
<text text-anchor="middle" x="95" y="-451.4" font-family="Helvetica,sans-Serif" font-size="12.00">Default construct type</text>
<text text-anchor="middle" x="95" y="-438.4" font-family="Helvetica,sans-Serif" font-size="12.00">specified in subType</text>
</g>
<!-- PolymorphicParentHasDefaultConstruct&#45;&gt;UsePolymorphicSubtype -->
<g id="edge12" class="edge">
<title>PolymorphicParentHasDefaultConstruct&#45;&gt;UsePolymorphicSubtype</title>
<path fill="none" stroke="black" d="M154.91,-547.31C141.58,-525.44 123.63,-495.97 110.86,-475.02"/>
<polygon fill="black" stroke="black" points="113.75,-473.05 105.56,-466.33 107.77,-476.69 113.75,-473.05"/>
<text text-anchor="middle" x="151" y="-516.4" font-family="Helvetica,sans-Serif" font-size="12.00">Yes</text>
</g>
<!-- Null1 -->
<g id="node19" class="node">
<title>Null1</title>
<polygon fill="none" stroke="black" points="252,-466 188,-466 188,-430 252,-430 252,-466"/>
<text text-anchor="middle" x="220" y="-444.9" font-family="Helvetica,sans-Serif" font-size="12.00">Use null</text>
</g>
<!-- PolymorphicParentHasDefaultConstruct&#45;&gt;Null1 -->
<g id="edge13" class="edge">
<title>PolymorphicParentHasDefaultConstruct&#45;&gt;Null1</title>
<path fill="none" stroke="black" d="M184.38,-546.01C192.23,-524.62 202.58,-496.45 210.09,-475.98"/>
<polygon fill="black" stroke="black" points="213.47,-476.93 213.64,-466.33 206.9,-474.51 213.47,-476.93"/>
<text text-anchor="middle" x="205.5" y="-516.4" font-family="Helvetica,sans-Serif" font-size="12.00">No</text>
</g>
<!-- IsPolymorphicChildCompute -->
<g id="node9" class="node">
<title>IsPolymorphicChildCompute</title>
<polygon fill="none" stroke="black" points="453,-495 316,-448 453,-401 590,-448 453,-495"/>
<text text-anchor="middle" x="453" y="-457.9" font-family="Helvetica,sans-Serif" font-size="12.00">Is the condition for</text>
<text text-anchor="middle" x="453" y="-444.9" font-family="Helvetica,sans-Serif" font-size="12.00">this child a compute</text>
<text text-anchor="middle" x="453" y="-431.9" font-family="Helvetica,sans-Serif" font-size="12.00">function?</text>
</g>
<!-- IsPolymorphicChild&#45;&gt;IsPolymorphicChildCompute -->
<g id="edge15" class="edge">
<title>IsPolymorphicChild&#45;&gt;IsPolymorphicChildCompute</title>
<path fill="none" stroke="black" d="M482.66,-546.34C478.52,-532.75 473.53,-516.38 468.83,-500.97"/>
<polygon fill="black" stroke="black" points="472.07,-499.57 465.8,-491.02 465.37,-501.61 472.07,-499.57"/>
<text text-anchor="middle" x="486" y="-516.4" font-family="Helvetica,sans-Serif" font-size="12.00">Yes</text>
</g>
<!-- DefaultConstructFields -->
<g id="node18" class="node">
<title>DefaultConstructFields</title>
<polygon fill="none" stroke="black" points="637.5,-182 484.5,-182 484.5,-146 637.5,-146 637.5,-182"/>
<text text-anchor="middle" x="561" y="-167.4" font-family="Helvetica,sans-Serif" font-size="12.00">Default construct all</text>
<text text-anchor="middle" x="561" y="-154.4" font-family="Helvetica,sans-Serif" font-size="12.00">fields in message class</text>
</g>
<!-- IsPolymorphicChild&#45;&gt;DefaultConstructFields -->
<g id="edge21" class="edge">
<title>IsPolymorphicChild&#45;&gt;DefaultConstructFields</title>
<path fill="none" stroke="black" d="M535.72,-555.31C572.11,-533.82 618,-497.18 618,-449 618,-449 618,-449 618,-236 618,-217.63 606.26,-201.31 593.43,-188.96"/>
<polygon fill="black" stroke="black" points="595.62,-186.23 585.84,-182.17 590.95,-191.44 595.62,-186.23"/>
<text text-anchor="middle" x="626.5" y="-318.9" font-family="Helvetica,sans-Serif" font-size="12.00">No</text>
</g>
<!-- DefaultConstructPolymorphicTypeField -->
<g id="node15" class="node">
<title>DefaultConstructPolymorphicTypeField</title>
<polygon fill="none" stroke="black" points="432.5,-345.5 311.5,-345.5 311.5,-298.5 432.5,-298.5 432.5,-345.5"/>
<text text-anchor="middle" x="372" y="-331.9" font-family="Helvetica,sans-Serif" font-size="12.00">Default construct</text>
<text text-anchor="middle" x="372" y="-318.9" font-family="Helvetica,sans-Serif" font-size="12.00">polymorphic type</text>
<text text-anchor="middle" x="372" y="-305.9" font-family="Helvetica,sans-Serif" font-size="12.00">field</text>
</g>
<!-- IsPolymorphicChildCompute&#45;&gt;DefaultConstructPolymorphicTypeField -->
<g id="edge16" class="edge">
<title>IsPolymorphicChildCompute&#45;&gt;DefaultConstructPolymorphicTypeField</title>
<path fill="none" stroke="black" d="M428.26,-409.12C416.79,-391.57 403.34,-370.97 392.46,-354.32"/>
<polygon fill="black" stroke="black" points="395.11,-351.98 386.71,-345.52 389.25,-355.8 395.11,-351.98"/>
<text text-anchor="middle" x="421" y="-373.4" font-family="Helvetica,sans-Serif" font-size="12.00">Yes</text>
</g>
<!-- PolymorphicTypeFieldConstant -->
<g id="node16" class="node">
<title>PolymorphicTypeFieldConstant</title>
<polygon fill="none" stroke="black" points="581.5,-352 450.5,-352 450.5,-292 581.5,-292 581.5,-352"/>
<text text-anchor="middle" x="516" y="-338.4" font-family="Helvetica,sans-Serif" font-size="12.00">Use first specified</text>
<text text-anchor="middle" x="516" y="-325.4" font-family="Helvetica,sans-Serif" font-size="12.00">constant value* for</text>
<text text-anchor="middle" x="516" y="-312.4" font-family="Helvetica,sans-Serif" font-size="12.00">polymorphic type</text>
<text text-anchor="middle" x="516" y="-299.4" font-family="Helvetica,sans-Serif" font-size="12.00">field</text>
</g>
<!-- IsPolymorphicChildCompute&#45;&gt;PolymorphicTypeFieldConstant -->
<g id="edge17" class="edge">
<title>IsPolymorphicChildCompute&#45;&gt;PolymorphicTypeFieldConstant</title>
<path fill="none" stroke="black" d="M472.93,-407.77C480.44,-392.98 488.97,-376.19 496.45,-361.48"/>
<polygon fill="black" stroke="black" points="499.78,-362.65 501.19,-352.15 493.54,-359.48 499.78,-362.65"/>
<text text-anchor="middle" x="500.5" y="-373.4" font-family="Helvetica,sans-Serif" font-size="12.00">No</text>
</g>
<!-- FieldUsePolymorphicSubtype -->
<g id="node12" class="node">
<title>FieldUsePolymorphicSubtype</title>
<polygon fill="none" stroke="black" points="1048,-596 898,-596 898,-560 1048,-560 1048,-596"/>
<text text-anchor="middle" x="973" y="-581.4" font-family="Helvetica,sans-Serif" font-size="12.00">Default construct type</text>
<text text-anchor="middle" x="973" y="-568.4" font-family="Helvetica,sans-Serif" font-size="12.00">specified in subType</text>
</g>
<!-- FieldAssertMessageTypeIsParent&#45;&gt;FieldUsePolymorphicSubtype -->
<g id="edge5" class="edge">
<title>FieldAssertMessageTypeIsParent&#45;&gt;FieldUsePolymorphicSubtype</title>
<path fill="none" stroke="black" d="M973,-676.53C973,-657.94 973,-628.24 973,-606.5"/>
<polygon fill="black" stroke="black" points="976.5,-606.25 973,-596.25 969.5,-606.25 976.5,-606.25"/>
</g>
<!-- DefaultConstructOtherParentFields -->
<g id="node17" class="node">
<title>DefaultConstructOtherParentFields</title>
<polygon fill="none" stroke="black" points="579.5,-255 452.5,-255 452.5,-219 579.5,-219 579.5,-255"/>
<text text-anchor="middle" x="516" y="-240.4" font-family="Helvetica,sans-Serif" font-size="12.00">Default construct</text>
<text text-anchor="middle" x="516" y="-227.4" font-family="Helvetica,sans-Serif" font-size="12.00">other parent fields</text>
</g>
<!-- DefaultConstructPolymorphicTypeField&#45;&gt;DefaultConstructOtherParentFields -->
<g id="edge18" class="edge">
<title>DefaultConstructPolymorphicTypeField&#45;&gt;DefaultConstructOtherParentFields</title>
<path fill="none" stroke="black" d="M411.35,-298.32C431.95,-286.45 457.08,-271.96 477.54,-260.17"/>
<polygon fill="black" stroke="black" points="479.38,-263.15 486.29,-255.12 475.88,-257.08 479.38,-263.15"/>
</g>
<!-- PolymorphicTypeFieldConstant&#45;&gt;DefaultConstructOtherParentFields -->
<g id="edge19" class="edge">
<title>PolymorphicTypeFieldConstant&#45;&gt;DefaultConstructOtherParentFields</title>
<path fill="none" stroke="black" d="M516,-291.97C516,-283.29 516,-273.81 516,-265.25"/>
<polygon fill="black" stroke="black" points="519.5,-265.03 516,-255.03 512.5,-265.03 519.5,-265.03"/>
</g>
<!-- DefaultConstructOtherParentFields&#45;&gt;DefaultConstructFields -->
<g id="edge20" class="edge">
<title>DefaultConstructOtherParentFields&#45;&gt;DefaultConstructFields</title>
<path fill="none" stroke="black" d="M526.89,-218.81C532.25,-210.35 538.83,-199.98 544.77,-190.61"/>
<polygon fill="black" stroke="black" points="547.81,-192.35 550.21,-182.03 541.9,-188.6 547.81,-192.35"/>
</g>
<!-- UseFirstEnumValue -->
<g id="node22" class="node">
<title>UseFirstEnumValue</title>
<polygon fill="none" stroke="black" points="867.5,-843 780.5,-843 780.5,-807 867.5,-807 867.5,-843"/>
<text text-anchor="middle" x="824" y="-828.4" font-family="Helvetica,sans-Serif" font-size="12.00">Use first</text>
<text text-anchor="middle" x="824" y="-815.4" font-family="Helvetica,sans-Serif" font-size="12.00">enum value</text>
</g>
<!-- UseFirstEnumValueAttach&#45;&gt;UseFirstEnumValue -->
<g id="edge23" class="edge">
<title>UseFirstEnumValueAttach&#45;&gt;UseFirstEnumValue</title>
<path fill="none" stroke="black" d="M674.15,-825C684.65,-825 731.62,-825 770.21,-825"/>
<polygon fill="black" stroke="black" points="770.33,-828.5 780.33,-825 770.33,-821.5 770.33,-828.5"/>
<text text-anchor="middle" x="727.15" y="-831.4" font-family="Helvetica,sans-Serif" font-size="12.00">Network Enum</text>
</g>
<!-- UseZeroAttach -->
<g id="node23" class="node">
<title>UseZeroAttach</title>
<ellipse fill="black" stroke="black" cx="672" cy="-695" rx="1.8" ry="1.8"/>
</g>
<!-- UseFirstEnumValueAttach&#45;&gt;UseZeroAttach -->
<g id="edge24" class="edge">
<title>UseFirstEnumValueAttach&#45;&gt;UseZeroAttach</title>
<path fill="none" stroke="black" d="M672,-823.18C672,-812.96 672,-710.12 672,-697.31"/>
</g>
<!-- UseZero -->
<g id="node24" class="node">
<title>UseZero</title>
<polygon fill="none" stroke="black" points="797,-713 743,-713 743,-677 797,-677 797,-713"/>
<text text-anchor="middle" x="770" y="-691.9" font-family="Helvetica,sans-Serif" font-size="12.00">Use 0</text>
</g>
<!-- UseZeroAttach&#45;&gt;UseZero -->
<g id="edge25" class="edge">
<title>UseZeroAttach&#45;&gt;UseZero</title>
<path fill="none" stroke="black" d="M674.05,-695C681.66,-695 709.12,-695 732.73,-695"/>
<polygon fill="black" stroke="black" points="732.88,-698.5 742.88,-695 732.88,-691.5 732.88,-698.5"/>
<text text-anchor="middle" x="708.4" y="-701.4" font-family="Helvetica,sans-Serif" font-size="12.00">Numeric</text>
</g>
<!-- UseOptionalEmptyAttach -->
<g id="node25" class="node">
<title>UseOptionalEmptyAttach</title>
<ellipse fill="black" stroke="black" cx="672" cy="-578" rx="1.8" ry="1.8"/>
</g>
<!-- UseZeroAttach&#45;&gt;UseOptionalEmptyAttach -->
<g id="edge26" class="edge">
<title>UseZeroAttach&#45;&gt;UseOptionalEmptyAttach</title>
<path fill="none" stroke="black" d="M672,-692.71C672,-680.86 672,-591.29 672,-580.14"/>
</g>
<!-- UseOptionalEmpty -->
<g id="node26" class="node">
<title>UseOptionalEmpty</title>
<polygon fill="none" stroke="black" points="861,-596 771,-596 771,-560 861,-560 861,-596"/>
<text text-anchor="middle" x="816" y="-574.9" font-family="Helvetica,sans-Serif" font-size="12.00">Use empty()</text>
</g>
<!-- UseOptionalEmptyAttach&#45;&gt;UseOptionalEmpty -->
<g id="edge27" class="edge">
<title>UseOptionalEmptyAttach&#45;&gt;UseOptionalEmpty</title>
<path fill="none" stroke="black" d="M674.04,-578C683.59,-578 724.99,-578 760.64,-578"/>
<polygon fill="black" stroke="black" points="761,-581.5 771,-578 761,-574.5 761,-581.5"/>
<text text-anchor="middle" x="722.4" y="-610.4" font-family="Helvetica,sans-Serif" font-size="12.00">Optional</text>
<text text-anchor="middle" x="722.4" y="-597.4" font-family="Helvetica,sans-Serif" font-size="12.00">OptionalInt</text>
<text text-anchor="middle" x="722.4" y="-584.4" font-family="Helvetica,sans-Serif" font-size="12.00">OptionalLong</text>
</g>
<!-- UseEmptyArrayAttach -->
<g id="node27" class="node">
<title>UseEmptyArrayAttach</title>
<ellipse fill="black" stroke="black" cx="672" cy="-448" rx="1.8" ry="1.8"/>
</g>
<!-- UseOptionalEmptyAttach&#45;&gt;UseEmptyArrayAttach -->
<g id="edge28" class="edge">
<title>UseOptionalEmptyAttach&#45;&gt;UseEmptyArrayAttach</title>
<path fill="none" stroke="black" d="M672,-576.18C672,-565.96 672,-463.12 672,-450.31"/>
</g>
<!-- UseEmptyArray -->
<g id="node28" class="node">
<title>UseEmptyArray</title>
<polygon fill="none" stroke="black" points="840,-466 724,-466 724,-430 840,-430 840,-466"/>
<text text-anchor="middle" x="782" y="-444.9" font-family="Helvetica,sans-Serif" font-size="12.00">Use empty array</text>
</g>
<!-- UseEmptyArrayAttach&#45;&gt;UseEmptyArray -->
<g id="edge29" class="edge">
<title>UseEmptyArrayAttach&#45;&gt;UseEmptyArray</title>
<path fill="none" stroke="black" d="M673.91,-448C679.33,-448 695.59,-448 713.91,-448"/>
<polygon fill="black" stroke="black" points="713.94,-451.5 723.94,-448 713.94,-444.5 713.94,-451.5"/>
<text text-anchor="middle" x="698.9" y="-454.4" font-family="Helvetica,sans-Serif" font-size="12.00">Array</text>
</g>
<!-- UseArrayListAttach -->
<g id="node29" class="node">
<title>UseArrayListAttach</title>
<ellipse fill="black" stroke="black" cx="672" cy="-322" rx="1.8" ry="1.8"/>
</g>
<!-- UseEmptyArrayAttach&#45;&gt;UseArrayListAttach -->
<g id="edge30" class="edge">
<title>UseEmptyArrayAttach&#45;&gt;UseArrayListAttach</title>
<path fill="none" stroke="black" d="M672,-445.61C672,-432.84 672,-336.25 672,-324.23"/>
</g>
<!-- UseArrayList -->
<g id="node30" class="node">
<title>UseArrayList</title>
<polygon fill="none" stroke="black" points="838,-340 712,-340 712,-304 838,-304 838,-340"/>
<text text-anchor="middle" x="775" y="-318.9" font-family="Helvetica,sans-Serif" font-size="12.00">new ArrayList&lt;&gt;()</text>
</g>
<!-- UseArrayListAttach&#45;&gt;UseArrayList -->
<g id="edge31" class="edge">
<title>UseArrayListAttach&#45;&gt;UseArrayList</title>
<path fill="none" stroke="black" d="M674.15,-322C678.5,-322 689.02,-322 701.7,-322"/>
<polygon fill="black" stroke="black" points="701.75,-325.5 711.75,-322 701.75,-318.5 701.75,-325.5"/>
<text text-anchor="middle" x="692.9" y="-328.4" font-family="Helvetica,sans-Serif" font-size="12.00">List</text>
</g>
<!-- UseIntArrayListAttach -->
<g id="node31" class="node">
<title>UseIntArrayListAttach</title>
<ellipse fill="black" stroke="black" cx="672" cy="-237" rx="1.8" ry="1.8"/>
</g>
<!-- UseArrayListAttach&#45;&gt;UseIntArrayListAttach -->
<g id="edge32" class="edge">
<title>UseArrayListAttach&#45;&gt;UseIntArrayListAttach</title>
<path fill="none" stroke="black" d="M672,-320.07C672,-311.52 672,-246.87 672,-238.82"/>
</g>
<!-- UseIntArrayList -->
<g id="node32" class="node">
<title>UseIntArrayList</title>
<polygon fill="none" stroke="black" points="850,-255 728,-255 728,-219 850,-219 850,-255"/>
<text text-anchor="middle" x="789" y="-233.9" font-family="Helvetica,sans-Serif" font-size="12.00">new IntArrayList()</text>
</g>
<!-- UseIntArrayListAttach&#45;&gt;UseIntArrayList -->
<g id="edge33" class="edge">
<title>UseIntArrayListAttach&#45;&gt;UseIntArrayList</title>
<path fill="none" stroke="black" d="M674.03,-237C679.9,-237 697.73,-237 717.65,-237"/>
<polygon fill="black" stroke="black" points="717.88,-240.5 727.88,-237 717.88,-233.5 717.88,-240.5"/>
<text text-anchor="middle" x="700.9" y="-243.4" font-family="Helvetica,sans-Serif" font-size="12.00">IntList</text>
</g>
<!-- UseLongArrayListAttach -->
<g id="node33" class="node">
<title>UseLongArrayListAttach</title>
<ellipse fill="black" stroke="black" cx="672" cy="-164" rx="1.8" ry="1.8"/>
</g>
<!-- UseIntArrayListAttach&#45;&gt;UseLongArrayListAttach -->
<g id="edge34" class="edge">
<title>UseIntArrayListAttach&#45;&gt;UseLongArrayListAttach</title>
<path fill="none" stroke="black" d="M672,-235C672,-227.04 672,-174.27 672,-166.07"/>
</g>
<!-- UseLongArrayList -->
<g id="node34" class="node">
<title>UseLongArrayList</title>
<polygon fill="none" stroke="black" points="877,-182 741,-182 741,-146 877,-146 877,-182"/>
<text text-anchor="middle" x="809" y="-160.9" font-family="Helvetica,sans-Serif" font-size="12.00">new LongArrayList()</text>
</g>
<!-- UseLongArrayListAttach&#45;&gt;UseLongArrayList -->
<g id="edge35" class="edge">
<title>UseLongArrayListAttach&#45;&gt;UseLongArrayList</title>
<path fill="none" stroke="black" d="M673.94,-164C680.74,-164 704.54,-164 730.31,-164"/>
<polygon fill="black" stroke="black" points="730.63,-167.5 740.63,-164 730.63,-160.5 730.63,-167.5"/>
<text text-anchor="middle" x="707.4" y="-170.4" font-family="Helvetica,sans-Serif" font-size="12.00">LongList</text>
</g>
<!-- UseBitSetAttach -->
<g id="node35" class="node">
<title>UseBitSetAttach</title>
<ellipse fill="black" stroke="black" cx="672" cy="-91" rx="1.8" ry="1.8"/>
</g>
<!-- UseLongArrayListAttach&#45;&gt;UseBitSetAttach -->
<g id="edge36" class="edge">
<title>UseLongArrayListAttach&#45;&gt;UseBitSetAttach</title>
<path fill="none" stroke="black" d="M672,-162C672,-154.04 672,-101.27 672,-93.07"/>
</g>
<!-- UseBitSet -->
<g id="node36" class="node">
<title>UseBitSet</title>
<polygon fill="none" stroke="black" points="816.5,-109 727.5,-109 727.5,-73 816.5,-73 816.5,-109"/>
<text text-anchor="middle" x="772" y="-87.9" font-family="Helvetica,sans-Serif" font-size="12.00">new BitSet()</text>
</g>
<!-- UseBitSetAttach&#45;&gt;UseBitSet -->
<g id="edge37" class="edge">
<title>UseBitSetAttach&#45;&gt;UseBitSet</title>
<path fill="none" stroke="black" d="M674.09,-91C680.11,-91 698.28,-91 717.36,-91"/>
<polygon fill="black" stroke="black" points="717.36,-94.5 727.36,-91 717.36,-87.5 717.36,-94.5"/>
<text text-anchor="middle" x="700.65" y="-97.4" font-family="Helvetica,sans-Serif" font-size="12.00">BitSet</text>
</g>
<!-- OtherwiseAttach -->
<g id="node37" class="node">
<title>OtherwiseAttach</title>
<ellipse fill="black" stroke="black" cx="672" cy="-18" rx="1.8" ry="1.8"/>
</g>
<!-- UseBitSetAttach&#45;&gt;OtherwiseAttach -->
<g id="edge38" class="edge">
<title>UseBitSetAttach&#45;&gt;OtherwiseAttach</title>
<path fill="none" stroke="black" d="M672,-89C672,-81.04 672,-28.27 672,-20.07"/>
</g>
<!-- Otherwise -->
<g id="node38" class="node">
<title>Otherwise</title>
<polygon fill="none" stroke="black" points="816,-36 752,-36 752,0 816,0 816,-36"/>
<text text-anchor="middle" x="784" y="-14.9" font-family="Helvetica,sans-Serif" font-size="12.00">Use null</text>
</g>
<!-- OtherwiseAttach&#45;&gt;Otherwise -->
<g id="edge39" class="edge">
<title>OtherwiseAttach&#45;&gt;Otherwise</title>
<path fill="none" stroke="black" d="M673.94,-18C682.08,-18 714.28,-18 741.76,-18"/>
<polygon fill="black" stroke="black" points="742,-21.5 752,-18 742,-14.5 742,-21.5"/>
<text text-anchor="middle" x="712.9" y="-24.4" font-family="Helvetica,sans-Serif" font-size="12.00">Otherwise</text>
</g>
</g>
</svg>
