<?xml version="1.0" encoding="UTF-8" standalone="no"?>
<!DOCTYPE svg PUBLIC "-//W3C//DTD SVG 1.1//EN"
 "http://www.w3.org/Graphics/SVG/1.1/DTD/svg11.dtd">
<!-- Generated by graphviz version 2.43.0 (0)
 -->
<!-- Title: %3 Pages: 1 -->
<svg width="1300pt" height="1187pt"
 viewBox="0.00 0.00 1299.50 1187.00" xmlns="http://www.w3.org/2000/svg" xmlns:xlink="http://www.w3.org/1999/xlink">
<g id="graph0" class="graph" transform="scale(1 1) rotate(0) translate(4 1183)">
<title>%3</title>
<polygon fill="white" stroke="transparent" points="-4,4 -4,-1183 1295.5,-1183 1295.5,4 -4,4"/>
<!-- IsAnnotatedField -->
<g id="node1" class="node">
<title>IsAnnotatedField</title>
<polygon fill="none" stroke="black" points="847,-1179 617,-1145 847,-1111 1077,-1145 847,-1179"/>
<text text-anchor="middle" x="847" y="-1148.4" font-family="Helvetica,sans-Serif" font-size="12.00">Is it in a field</text>
<text text-anchor="middle" x="847" y="-1135.4" font-family="Helvetica,sans-Serif" font-size="12.00">annotated with @DefaultConstruct?</text>
</g>
<!-- WhatType -->
<g id="node2" class="node">
<title>WhatType</title>
<polygon fill="none" stroke="black" points="677,-1046 582.96,-1028 677,-1010 771.04,-1028 677,-1046"/>
<text text-anchor="middle" x="677" y="-1024.9" font-family="Helvetica,sans-Serif" font-size="12.00">What type is it?</text>
</g>
<!-- IsAnnotatedField&#45;&gt;WhatType -->
<g id="edge7" class="edge">
<title>IsAnnotatedField&#45;&gt;WhatType</title>
<path fill="none" stroke="black" d="M806.71,-1116.75C775.53,-1095.65 733.11,-1066.96 705.41,-1048.22"/>
<polygon fill="black" stroke="black" points="707.2,-1045.21 696.96,-1042.5 703.28,-1051 707.2,-1045.21"/>
<text text-anchor="middle" x="776.5" y="-1083.4" font-family="Helvetica,sans-Serif" font-size="12.00">No</text>
</g>
<!-- FieldHasComputeFunction -->
<g id="node3" class="node">
<title>FieldHasComputeFunction</title>
<polygon fill="none" stroke="black" points="1018,-1062 890,-1028 1018,-994 1146,-1028 1018,-1062"/>
<text text-anchor="middle" x="1018" y="-1031.4" font-family="Helvetica,sans-Serif" font-size="12.00">Is there a</text>
<text text-anchor="middle" x="1018" y="-1018.4" font-family="Helvetica,sans-Serif" font-size="12.00">compute function?</text>
</g>
<!-- IsAnnotatedField&#45;&gt;FieldHasComputeFunction -->
<g id="edge1" class="edge">
<title>IsAnnotatedField&#45;&gt;FieldHasComputeFunction</title>
<path fill="none" stroke="black" d="M887.52,-1116.75C913.64,-1099.19 947.57,-1076.36 974.29,-1058.4"/>
<polygon fill="black" stroke="black" points="976.35,-1061.23 982.69,-1052.75 972.44,-1055.42 976.35,-1061.23"/>
<text text-anchor="middle" x="948" y="-1083.4" font-family="Helvetica,sans-Serif" font-size="12.00">Yes</text>
</g>
<!-- IsInTailrec -->
<g id="node5" class="node">
<title>IsInTailrec</title>
<polygon fill="none" stroke="black" points="427,-945 197,-898 427,-851 657,-898 427,-945"/>
<text text-anchor="middle" x="427" y="-907.9" font-family="Helvetica,sans-Serif" font-size="12.00">Is it in a field</text>
<text text-anchor="middle" x="427" y="-894.9" font-family="Helvetica,sans-Serif" font-size="12.00">referencing a message variant type</text>
<text text-anchor="middle" x="427" y="-881.9" font-family="Helvetica,sans-Serif" font-size="12.00">by tail recursion**?</text>
</g>
<!-- WhatType&#45;&gt;IsInTailrec -->
<g id="edge8" class="edge">
<title>WhatType&#45;&gt;IsInTailrec</title>
<path fill="none" stroke="black" d="M651.68,-1014.84C630.56,-1004.63 599.71,-989.59 573,-976 548.54,-963.56 521.95,-949.65 498.25,-937.11"/>
<polygon fill="black" stroke="black" points="499.79,-933.97 489.31,-932.38 496.51,-940.15 499.79,-933.97"/>
<text text-anchor="middle" x="623" y="-966.4" font-family="Helvetica,sans-Serif" font-size="12.00">Message Variant</text>
</g>
<!-- UseMessageAttach -->
<g id="node21" class="node">
<title>UseMessageAttach</title>
<ellipse fill="black" stroke="black" cx="677" cy="-898" rx="1.8" ry="1.8"/>
</g>
<!-- WhatType&#45;&gt;UseMessageAttach -->
<g id="edge22" class="edge">
<title>WhatType&#45;&gt;UseMessageAttach</title>
<path fill="none" stroke="black" d="M677,-1009.74C677,-976.98 677,-908.32 677,-899.86"/>
</g>
<!-- FieldIsMessageType -->
<g id="node4" class="node">
<title>FieldIsMessageType</title>
<polygon fill="none" stroke="black" points="1018,-932 911,-898 1018,-864 1125,-898 1018,-932"/>
<text text-anchor="middle" x="1018" y="-901.4" font-family="Helvetica,sans-Serif" font-size="12.00">Is it a message</text>
<text text-anchor="middle" x="1018" y="-888.4" font-family="Helvetica,sans-Serif" font-size="12.00">variant type?</text>
</g>
<!-- FieldHasComputeFunction&#45;&gt;FieldIsMessageType -->
<g id="edge3" class="edge">
<title>FieldHasComputeFunction&#45;&gt;FieldIsMessageType</title>
<path fill="none" stroke="black" d="M1018,-993.7C1018,-978 1018,-959.06 1018,-942.27"/>
<polygon fill="black" stroke="black" points="1021.5,-942.13 1018,-932.13 1014.5,-942.13 1021.5,-942.13"/>
<text text-anchor="middle" x="1026.5" y="-966.4" font-family="Helvetica,sans-Serif" font-size="12.00">No</text>
</g>
<!-- FieldUseComputeFunction -->
<g id="node10" class="node">
<title>FieldUseComputeFunction</title>
<polygon fill="none" stroke="black" points="1291.5,-916 1142.5,-916 1142.5,-880 1291.5,-880 1291.5,-916"/>
<text text-anchor="middle" x="1217" y="-894.9" font-family="Helvetica,sans-Serif" font-size="12.00">Use compute function</text>
</g>
<!-- FieldHasComputeFunction&#45;&gt;FieldUseComputeFunction -->
<g id="edge2" class="edge">
<title>FieldHasComputeFunction&#45;&gt;FieldUseComputeFunction</title>
<path fill="none" stroke="black" d="M1054.5,-1003.52C1090.7,-980.24 1145.81,-944.79 1181.62,-921.76"/>
<polygon fill="black" stroke="black" points="1183.77,-924.54 1190.28,-916.18 1179.98,-918.65 1183.77,-924.54"/>
<text text-anchor="middle" x="1128" y="-966.4" font-family="Helvetica,sans-Serif" font-size="12.00">Yes</text>
</g>
<!-- FieldAssertMessageTypeIsParent -->
<g id="node11" class="node">
<title>FieldAssertMessageTypeIsParent</title>
<polygon fill="none" stroke="black" points="1046.5,-786 923.5,-786 923.5,-750 1046.5,-750 1046.5,-786"/>
<text text-anchor="middle" x="985" y="-771.4" font-family="Helvetica,sans-Serif" font-size="12.00">Assert type is</text>
<text text-anchor="middle" x="985" y="-758.4" font-family="Helvetica,sans-Serif" font-size="12.00">polymorphic base</text>
</g>
<!-- FieldIsMessageType&#45;&gt;FieldAssertMessageTypeIsParent -->
<g id="edge4" class="edge">
<title>FieldIsMessageType&#45;&gt;FieldAssertMessageTypeIsParent</title>
<path fill="none" stroke="black" d="M1010.1,-866.34C1004.55,-844.83 997.21,-816.34 991.9,-795.75"/>
<polygon fill="black" stroke="black" points="995.28,-794.87 989.4,-786.06 988.51,-796.62 995.28,-794.87"/>
<text text-anchor="middle" x="1012" y="-823.4" font-family="Helvetica,sans-Serif" font-size="12.00">Yes</text>
</g>
<!-- FieldUseConstantValue -->
<g id="node13" class="node">
<title>FieldUseConstantValue</title>
<polygon fill="none" stroke="black" points="1175,-786 1065,-786 1065,-750 1175,-750 1175,-786"/>
<text text-anchor="middle" x="1120" y="-771.4" font-family="Helvetica,sans-Serif" font-size="12.00">Use specified</text>
<text text-anchor="middle" x="1120" y="-758.4" font-family="Helvetica,sans-Serif" font-size="12.00">constant value*</text>
</g>
<!-- FieldIsMessageType&#45;&gt;FieldUseConstantValue -->
<g id="edge6" class="edge">
<title>FieldIsMessageType&#45;&gt;FieldUseConstantValue</title>
<path fill="none" stroke="black" d="M1039.13,-870.48C1057.04,-848.01 1082.52,-816.03 1100.07,-794.01"/>
<polygon fill="black" stroke="black" points="1102.88,-796.1 1106.38,-786.09 1097.41,-791.73 1102.88,-796.1"/>
<text text-anchor="middle" x="1087.5" y="-823.4" font-family="Helvetica,sans-Serif" font-size="12.00">No</text>
</g>
<!-- IsPolymorphicParent -->
<g id="node6" class="node">
<title>IsPolymorphicParent</title>
<polygon fill="none" stroke="black" points="346,-802 217,-768 346,-734 475,-768 346,-802"/>
<text text-anchor="middle" x="346" y="-771.4" font-family="Helvetica,sans-Serif" font-size="12.00">Is it a</text>
<text text-anchor="middle" x="346" y="-758.4" font-family="Helvetica,sans-Serif" font-size="12.00">polymorphic base?</text>
</g>
<!-- IsInTailrec&#45;&gt;IsPolymorphicParent -->
<g id="edge10" class="edge">
<title>IsInTailrec&#45;&gt;IsPolymorphicParent</title>
<path fill="none" stroke="black" d="M401.15,-856.15C391.01,-840.12 379.45,-821.86 369.55,-806.21"/>
<polygon fill="black" stroke="black" points="372.23,-803.91 363.93,-797.33 366.32,-807.65 372.23,-803.91"/>
<text text-anchor="middle" x="395.5" y="-823.4" font-family="Helvetica,sans-Serif" font-size="12.00">No</text>
</g>
<!-- Null2 -->
<g id="node20" class="node">
<title>Null2</title>
<polygon fill="none" stroke="black" points="557,-786 493,-786 493,-750 557,-750 557,-786"/>
<text text-anchor="middle" x="525" y="-764.9" font-family="Helvetica,sans-Serif" font-size="12.00">Use null</text>
</g>
<!-- IsInTailrec&#45;&gt;Null2 -->
<g id="edge9" class="edge">
<title>IsInTailrec&#45;&gt;Null2</title>
<path fill="none" stroke="black" d="M457.47,-857.2C473.12,-836.77 491.72,-812.47 505.43,-794.56"/>
<polygon fill="black" stroke="black" points="508.44,-796.39 511.74,-786.33 502.88,-792.14 508.44,-796.39"/>
<text text-anchor="middle" x="495" y="-823.4" font-family="Helvetica,sans-Serif" font-size="12.00">Yes</text>
</g>
<!-- PolymorphicParentHasDefaultConstruct -->
<g id="node7" class="node">
<title>PolymorphicParentHasDefaultConstruct</title>
<polygon fill="none" stroke="black" points="173,-685 0,-651 173,-617 346,-651 173,-685"/>
<text text-anchor="middle" x="173" y="-654.4" font-family="Helvetica,sans-Serif" font-size="12.00">Is the message annotated</text>
<text text-anchor="middle" x="173" y="-641.4" font-family="Helvetica,sans-Serif" font-size="12.00">with @DefaultConstruct?</text>
</g>
<!-- IsPolymorphicParent&#45;&gt;PolymorphicParentHasDefaultConstruct -->
<g id="edge11" class="edge">
<title>IsPolymorphicParent&#45;&gt;PolymorphicParentHasDefaultConstruct</title>
<path fill="none" stroke="black" d="M310.15,-743.17C284.05,-725.82 248.45,-702.16 220.06,-683.29"/>
<polygon fill="black" stroke="black" points="221.77,-680.22 211.5,-677.59 217.89,-686.05 221.77,-680.22"/>
<text text-anchor="middle" x="275" y="-706.4" font-family="Helvetica,sans-Serif" font-size="12.00">Yes</text>
</g>
<!-- IsPolymorphicChild -->
<g id="node8" class="node">
<title>IsPolymorphicChild</title>
<polygon fill="none" stroke="black" points="492,-685 364,-651 492,-617 620,-651 492,-685"/>
<text text-anchor="middle" x="492" y="-654.4" font-family="Helvetica,sans-Serif" font-size="12.00">Is it a</text>
<text text-anchor="middle" x="492" y="-641.4" font-family="Helvetica,sans-Serif" font-size="12.00">polymorphic child?</text>
</g>
<!-- IsPolymorphicParent&#45;&gt;IsPolymorphicChild -->
<g id="edge14" class="edge">
<title>IsPolymorphicParent&#45;&gt;IsPolymorphicChild</title>
<path fill="none" stroke="black" d="M377.68,-742.05C399.66,-724.73 429.1,-701.55 452.59,-683.04"/>
<polygon fill="black" stroke="black" points="454.94,-685.64 460.63,-676.71 450.61,-680.15 454.94,-685.64"/>
<text text-anchor="middle" x="432.5" y="-706.4" font-family="Helvetica,sans-Serif" font-size="12.00">No</text>
</g>
<!-- UsePolymorphicSubtype -->
<g id="node14" class="node">
<title>UsePolymorphicSubtype</title>
<polygon fill="none" stroke="black" points="167,-539 17,-539 17,-503 167,-503 167,-539"/>
<text text-anchor="middle" x="92" y="-524.4" font-family="Helvetica,sans-Serif" font-size="12.00">Default construct type</text>
<text text-anchor="middle" x="92" y="-511.4" font-family="Helvetica,sans-Serif" font-size="12.00">specified in subType</text>
</g>
<!-- PolymorphicParentHasDefaultConstruct&#45;&gt;UsePolymorphicSubtype -->
<g id="edge12" class="edge">
<title>PolymorphicParentHasDefaultConstruct&#45;&gt;UsePolymorphicSubtype</title>
<path fill="none" stroke="black" d="M154.42,-620.63C140.5,-598.65 121.65,-568.85 108.31,-547.78"/>
<polygon fill="black" stroke="black" points="111.1,-545.63 102.79,-539.05 105.18,-549.37 111.1,-545.63"/>
<text text-anchor="middle" x="150" y="-589.4" font-family="Helvetica,sans-Serif" font-size="12.00">Yes</text>
</g>
<!-- Null1 -->
<g id="node19" class="node">
<title>Null1</title>
<polygon fill="none" stroke="black" points="249,-539 185,-539 185,-503 249,-503 249,-539"/>
<text text-anchor="middle" x="217" y="-517.9" font-family="Helvetica,sans-Serif" font-size="12.00">Use null</text>
</g>
<!-- PolymorphicParentHasDefaultConstruct&#45;&gt;Null1 -->
<g id="edge13" class="edge">
<title>PolymorphicParentHasDefaultConstruct&#45;&gt;Null1</title>
<path fill="none" stroke="black" d="M183.65,-619.01C191.01,-597.62 200.69,-569.45 207.73,-548.98"/>
<polygon fill="black" stroke="black" points="211.1,-549.93 211.04,-539.33 204.48,-547.65 211.1,-549.93"/>
<text text-anchor="middle" x="203.5" y="-589.4" font-family="Helvetica,sans-Serif" font-size="12.00">No</text>
</g>
<!-- IsPolymorphicChildCompute -->
<g id="node9" class="node">
<title>IsPolymorphicChildCompute</title>
<polygon fill="none" stroke="black" points="447,-568 310,-521 447,-474 584,-521 447,-568"/>
<text text-anchor="middle" x="447" y="-530.9" font-family="Helvetica,sans-Serif" font-size="12.00">Is the condition for</text>
<text text-anchor="middle" x="447" y="-517.9" font-family="Helvetica,sans-Serif" font-size="12.00">this child a compute</text>
<text text-anchor="middle" x="447" y="-504.9" font-family="Helvetica,sans-Serif" font-size="12.00">function?</text>
</g>
<!-- IsPolymorphicChild&#45;&gt;IsPolymorphicChildCompute -->
<g id="edge15" class="edge">
<title>IsPolymorphicChild&#45;&gt;IsPolymorphicChildCompute</title>
<path fill="none" stroke="black" d="M481.34,-619.67C476.43,-605.71 470.47,-588.76 464.91,-572.93"/>
<polygon fill="black" stroke="black" points="468.12,-571.53 461.5,-563.25 461.52,-573.85 468.12,-571.53"/>
<text text-anchor="middle" x="484" y="-589.4" font-family="Helvetica,sans-Serif" font-size="12.00">Yes</text>
</g>
<!-- DefaultConstructFields -->
<g id="node18" class="node">
<title>DefaultConstructFields</title>
<polygon fill="none" stroke="black" points="645.5,-255 446.5,-255 446.5,-219 645.5,-219 645.5,-255"/>
<text text-anchor="middle" x="546" y="-240.4" font-family="Helvetica,sans-Serif" font-size="12.00">Default construct all</text>
<text text-anchor="middle" x="546" y="-227.4" font-family="Helvetica,sans-Serif" font-size="12.00">fields in message variant class</text>
</g>
<!-- IsPolymorphicChild&#45;&gt;DefaultConstructFields -->
<g id="edge21" class="edge">
<title>IsPolymorphicChild&#45;&gt;DefaultConstructFields</title>
<path fill="none" stroke="black" d="M533.63,-627.79C568.29,-605.94 612,-569.06 612,-522 612,-522 612,-522 612,-309 612,-289.69 598.74,-273.42 584.11,-261.35"/>
<polygon fill="black" stroke="black" points="585.98,-258.38 575.91,-255.09 581.73,-263.94 585.98,-258.38"/>
<text text-anchor="middle" x="620.5" y="-391.9" font-family="Helvetica,sans-Serif" font-size="12.00">No</text>
</g>
<!-- DefaultConstructPolymorphicTypeField -->
<g id="node15" class="node">
<title>DefaultConstructPolymorphicTypeField</title>
<polygon fill="none" stroke="black" points="426.5,-418.5 305.5,-418.5 305.5,-371.5 426.5,-371.5 426.5,-418.5"/>
<text text-anchor="middle" x="366" y="-404.9" font-family="Helvetica,sans-Serif" font-size="12.00">Default construct</text>
<text text-anchor="middle" x="366" y="-391.9" font-family="Helvetica,sans-Serif" font-size="12.00">polymorphic type</text>
<text text-anchor="middle" x="366" y="-378.9" font-family="Helvetica,sans-Serif" font-size="12.00">field</text>
</g>
<!-- IsPolymorphicChildCompute&#45;&gt;DefaultConstructPolymorphicTypeField -->
<g id="edge16" class="edge">
<title>IsPolymorphicChildCompute&#45;&gt;DefaultConstructPolymorphicTypeField</title>
<path fill="none" stroke="black" d="M422.26,-482.12C410.79,-464.57 397.34,-443.97 386.46,-427.32"/>
<polygon fill="black" stroke="black" points="389.11,-424.98 380.71,-418.52 383.25,-428.8 389.11,-424.98"/>
<text text-anchor="middle" x="415" y="-446.4" font-family="Helvetica,sans-Serif" font-size="12.00">Yes</text>
</g>
<!-- PolymorphicTypeFieldConstant -->
<g id="node16" class="node">
<title>PolymorphicTypeFieldConstant</title>
<polygon fill="none" stroke="black" points="575.5,-425 444.5,-425 444.5,-365 575.5,-365 575.5,-425"/>
<text text-anchor="middle" x="510" y="-411.4" font-family="Helvetica,sans-Serif" font-size="12.00">Use first specified</text>
<text text-anchor="middle" x="510" y="-398.4" font-family="Helvetica,sans-Serif" font-size="12.00">constant value* for</text>
<text text-anchor="middle" x="510" y="-385.4" font-family="Helvetica,sans-Serif" font-size="12.00">polymorphic type</text>
<text text-anchor="middle" x="510" y="-372.4" font-family="Helvetica,sans-Serif" font-size="12.00">field</text>
</g>
<!-- IsPolymorphicChildCompute&#45;&gt;PolymorphicTypeFieldConstant -->
<g id="edge17" class="edge">
<title>IsPolymorphicChildCompute&#45;&gt;PolymorphicTypeFieldConstant</title>
<path fill="none" stroke="black" d="M466.93,-480.77C474.44,-465.98 482.97,-449.19 490.45,-434.48"/>
<polygon fill="black" stroke="black" points="493.78,-435.65 495.19,-425.15 487.54,-432.48 493.78,-435.65"/>
<text text-anchor="middle" x="494.5" y="-446.4" font-family="Helvetica,sans-Serif" font-size="12.00">No</text>
</g>
<!-- FieldUsePolymorphicSubtype -->
<g id="node12" class="node">
<title>FieldUsePolymorphicSubtype</title>
<polygon fill="none" stroke="black" points="1060,-669 910,-669 910,-633 1060,-633 1060,-669"/>
<text text-anchor="middle" x="985" y="-654.4" font-family="Helvetica,sans-Serif" font-size="12.00">Default construct type</text>
<text text-anchor="middle" x="985" y="-641.4" font-family="Helvetica,sans-Serif" font-size="12.00">specified in subType</text>
</g>
<!-- FieldAssertMessageTypeIsParent&#45;&gt;FieldUsePolymorphicSubtype -->
<g id="edge5" class="edge">
<title>FieldAssertMessageTypeIsParent&#45;&gt;FieldUsePolymorphicSubtype</title>
<path fill="none" stroke="black" d="M985,-749.53C985,-730.94 985,-701.24 985,-679.5"/>
<polygon fill="black" stroke="black" points="988.5,-679.25 985,-669.25 981.5,-679.25 988.5,-679.25"/>
</g>
<!-- DefaultConstructOtherParentFields -->
<g id="node17" class="node">
<title>DefaultConstructOtherParentFields</title>
<polygon fill="none" stroke="black" points="573.5,-328 446.5,-328 446.5,-292 573.5,-292 573.5,-328"/>
<text text-anchor="middle" x="510" y="-313.4" font-family="Helvetica,sans-Serif" font-size="12.00">Default construct</text>
<text text-anchor="middle" x="510" y="-300.4" font-family="Helvetica,sans-Serif" font-size="12.00">other parent fields</text>
</g>
<!-- DefaultConstructPolymorphicTypeField&#45;&gt;DefaultConstructOtherParentFields -->
<g id="edge18" class="edge">
<title>DefaultConstructPolymorphicTypeField&#45;&gt;DefaultConstructOtherParentFields</title>
<path fill="none" stroke="black" d="M405.35,-371.32C425.95,-359.45 451.08,-344.96 471.54,-333.17"/>
<polygon fill="black" stroke="black" points="473.38,-336.15 480.29,-328.12 469.88,-330.08 473.38,-336.15"/>
</g>
<!-- PolymorphicTypeFieldConstant&#45;&gt;DefaultConstructOtherParentFields -->
<g id="edge19" class="edge">
<title>PolymorphicTypeFieldConstant&#45;&gt;DefaultConstructOtherParentFields</title>
<path fill="none" stroke="black" d="M510,-364.97C510,-356.29 510,-346.81 510,-338.25"/>
<polygon fill="black" stroke="black" points="513.5,-338.03 510,-328.03 506.5,-338.03 513.5,-338.03"/>
</g>
<!-- DefaultConstructOtherParentFields&#45;&gt;DefaultConstructFields -->
<g id="edge20" class="edge">
<title>DefaultConstructOtherParentFields&#45;&gt;DefaultConstructFields</title>
<path fill="none" stroke="black" d="M518.71,-291.81C522.92,-283.53 528.05,-273.41 532.72,-264.19"/>
<polygon fill="black" stroke="black" points="535.96,-265.53 537.37,-255.03 529.72,-262.37 535.96,-265.53"/>
</g>
<!-- UseMessage -->
<g id="node22" class="node">
<title>UseMessage</title>
<polygon fill="none" stroke="black" points="892.5,-916 749.5,-916 749.5,-880 892.5,-880 892.5,-916"/>
<text text-anchor="middle" x="821" y="-901.4" font-family="Helvetica,sans-Serif" font-size="12.00">Use message variant</text>
<text text-anchor="middle" x="821" y="-888.4" font-family="Helvetica,sans-Serif" font-size="12.00">for this version</text>
</g>
<!-- UseMessageAttach&#45;&gt;UseMessage -->
<g id="edge23" class="edge">
<title>UseMessageAttach&#45;&gt;UseMessage</title>
<path fill="none" stroke="black" d="M679.04,-898C686.25,-898 711.65,-898 739,-898"/>
<polygon fill="black" stroke="black" points="739.14,-901.5 749.14,-898 739.14,-894.5 739.14,-901.5"/>
<text text-anchor="middle" x="714.15" y="-904.4" font-family="Helvetica,sans-Serif" font-size="12.00">Message</text>
</g>
<!-- UseFirstEnumValueAttach -->
<g id="node23" class="node">
<title>UseFirstEnumValueAttach</title>
<ellipse fill="black" stroke="black" cx="677" cy="-768" rx="1.8" ry="1.8"/>
</g>
<!-- UseMessageAttach&#45;&gt;UseFirstEnumValueAttach -->
<g id="edge24" class="edge">
<title>UseMessageAttach&#45;&gt;UseFirstEnumValueAttach</title>
<path fill="none" stroke="black" d="M677,-896.18C677,-885.96 677,-783.12 677,-770.31"/>
</g>
<!-- UseFirstEnumValue -->
<g id="node24" class="node">
<title>UseFirstEnumValue</title>
<polygon fill="none" stroke="black" points="872.5,-786 785.5,-786 785.5,-750 872.5,-750 872.5,-786"/>
<text text-anchor="middle" x="829" y="-771.4" font-family="Helvetica,sans-Serif" font-size="12.00">Use first</text>
<text text-anchor="middle" x="829" y="-758.4" font-family="Helvetica,sans-Serif" font-size="12.00">enum value</text>
</g>
<!-- UseFirstEnumValueAttach&#45;&gt;UseFirstEnumValue -->
<g id="edge25" class="edge">
<title>UseFirstEnumValueAttach&#45;&gt;UseFirstEnumValue</title>
<path fill="none" stroke="black" d="M679.15,-768C689.65,-768 736.62,-768 775.21,-768"/>
<polygon fill="black" stroke="black" points="775.33,-771.5 785.33,-768 775.33,-764.5 775.33,-771.5"/>
<text text-anchor="middle" x="732.15" y="-774.4" font-family="Helvetica,sans-Serif" font-size="12.00">Network Enum</text>
</g>
<!-- UseZeroAttach -->
<g id="node25" class="node">
<title>UseZeroAttach</title>
<ellipse fill="black" stroke="black" cx="677" cy="-651" rx="1.8" ry="1.8"/>
</g>
<!-- UseFirstEnumValueAttach&#45;&gt;UseZeroAttach -->
<g id="edge26" class="edge">
<title>UseFirstEnumValueAttach&#45;&gt;UseZeroAttach</title>
<path fill="none" stroke="black" d="M677,-765.71C677,-753.86 677,-664.29 677,-653.14"/>
</g>
<!-- UseZero -->
<g id="node26" class="node">
<title>UseZero</title>
<polygon fill="none" stroke="black" points="802,-669 748,-669 748,-633 802,-633 802,-669"/>
<text text-anchor="middle" x="775" y="-647.9" font-family="Helvetica,sans-Serif" font-size="12.00">Use 0</text>
</g>
<!-- UseZeroAttach&#45;&gt;UseZero -->
<g id="edge27" class="edge">
<title>UseZeroAttach&#45;&gt;UseZero</title>
<path fill="none" stroke="black" d="M679.05,-651C686.66,-651 714.12,-651 737.73,-651"/>
<polygon fill="black" stroke="black" points="737.88,-654.5 747.88,-651 737.88,-647.5 737.88,-654.5"/>
<text text-anchor="middle" x="713.4" y="-657.4" font-family="Helvetica,sans-Serif" font-size="12.00">Numeric</text>
</g>
<!-- UseOptionalEmptyAttach -->
<g id="node27" class="node">
<title>UseOptionalEmptyAttach</title>
<ellipse fill="black" stroke="black" cx="677" cy="-521" rx="1.8" ry="1.8"/>
</g>
<!-- UseZeroAttach&#45;&gt;UseOptionalEmptyAttach -->
<g id="edge28" class="edge">
<title>UseZeroAttach&#45;&gt;UseOptionalEmptyAttach</title>
<path fill="none" stroke="black" d="M677,-649.18C677,-638.96 677,-536.12 677,-523.31"/>
</g>
<!-- UseOptionalEmpty -->
<g id="node28" class="node">
<title>UseOptionalEmpty</title>
<polygon fill="none" stroke="black" points="866,-539 776,-539 776,-503 866,-503 866,-539"/>
<text text-anchor="middle" x="821" y="-517.9" font-family="Helvetica,sans-Serif" font-size="12.00">Use empty()</text>
</g>
<!-- UseOptionalEmptyAttach&#45;&gt;UseOptionalEmpty -->
<g id="edge29" class="edge">
<title>UseOptionalEmptyAttach&#45;&gt;UseOptionalEmpty</title>
<path fill="none" stroke="black" d="M679.04,-521C688.59,-521 729.99,-521 765.64,-521"/>
<polygon fill="black" stroke="black" points="766,-524.5 776,-521 766,-517.5 766,-524.5"/>
<text text-anchor="middle" x="727.4" y="-553.4" font-family="Helvetica,sans-Serif" font-size="12.00">Optional</text>
<text text-anchor="middle" x="727.4" y="-540.4" font-family="Helvetica,sans-Serif" font-size="12.00">OptionalInt</text>
<text text-anchor="middle" x="727.4" y="-527.4" font-family="Helvetica,sans-Serif" font-size="12.00">OptionalLong</text>
</g>
<!-- UseEmptyArrayAttach -->
<g id="node29" class="node">
<title>UseEmptyArrayAttach</title>
<ellipse fill="black" stroke="black" cx="677" cy="-395" rx="1.8" ry="1.8"/>
</g>
<!-- UseOptionalEmptyAttach&#45;&gt;UseEmptyArrayAttach -->
<g id="edge30" class="edge">
<title>UseOptionalEmptyAttach&#45;&gt;UseEmptyArrayAttach</title>
<path fill="none" stroke="black" d="M677,-518.61C677,-505.84 677,-409.25 677,-397.23"/>
</g>
<!-- UseEmptyArray -->
<g id="node30" class="node">
<title>UseEmptyArray</title>
<polygon fill="none" stroke="black" points="845,-413 729,-413 729,-377 845,-377 845,-413"/>
<text text-anchor="middle" x="787" y="-391.9" font-family="Helvetica,sans-Serif" font-size="12.00">Use empty array</text>
</g>
<!-- UseEmptyArrayAttach&#45;&gt;UseEmptyArray -->
<g id="edge31" class="edge">
<title>UseEmptyArrayAttach&#45;&gt;UseEmptyArray</title>
<path fill="none" stroke="black" d="M678.91,-395C684.33,-395 700.59,-395 718.91,-395"/>
<polygon fill="black" stroke="black" points="718.94,-398.5 728.94,-395 718.94,-391.5 718.94,-398.5"/>
<text text-anchor="middle" x="703.9" y="-401.4" font-family="Helvetica,sans-Serif" font-size="12.00">Array</text>
</g>
<!-- UseArrayListAttach -->
<g id="node31" class="node">
<title>UseArrayListAttach</title>
<ellipse fill="black" stroke="black" cx="677" cy="-310" rx="1.8" ry="1.8"/>
</g>
<!-- UseEmptyArrayAttach&#45;&gt;UseArrayListAttach -->
<g id="edge32" class="edge">
<title>UseEmptyArrayAttach&#45;&gt;UseArrayListAttach</title>
<path fill="none" stroke="black" d="M677,-393.07C677,-384.52 677,-319.87 677,-311.82"/>
</g>
<!-- UseArrayList -->
<g id="node32" class="node">
<title>UseArrayList</title>
<polygon fill="none" stroke="black" points="843,-328 717,-328 717,-292 843,-292 843,-328"/>
<text text-anchor="middle" x="780" y="-306.9" font-family="Helvetica,sans-Serif" font-size="12.00">new ArrayList&lt;&gt;()</text>
</g>
<!-- UseArrayListAttach&#45;&gt;UseArrayList -->
<g id="edge33" class="edge">
<title>UseArrayListAttach&#45;&gt;UseArrayList</title>
<path fill="none" stroke="black" d="M679.15,-310C683.5,-310 694.02,-310 706.7,-310"/>
<polygon fill="black" stroke="black" points="706.75,-313.5 716.75,-310 706.75,-306.5 706.75,-313.5"/>
<text text-anchor="middle" x="697.9" y="-316.4" font-family="Helvetica,sans-Serif" font-size="12.00">List</text>
</g>
<!-- UseIntArrayListAttach -->
<g id="node33" class="node">
<title>UseIntArrayListAttach</title>
<ellipse fill="black" stroke="black" cx="677" cy="-237" rx="1.8" ry="1.8"/>
</g>
<!-- UseArrayListAttach&#45;&gt;UseIntArrayListAttach -->
<g id="edge34" class="edge">
<title>UseArrayListAttach&#45;&gt;UseIntArrayListAttach</title>
<path fill="none" stroke="black" d="M677,-308C677,-300.04 677,-247.27 677,-239.07"/>
</g>
<!-- UseIntArrayList -->
<g id="node34" class="node">
<title>UseIntArrayList</title>
<polygon fill="none" stroke="black" points="855,-255 733,-255 733,-219 855,-219 855,-255"/>
<text text-anchor="middle" x="794" y="-233.9" font-family="Helvetica,sans-Serif" font-size="12.00">new IntArrayList()</text>
</g>
<!-- UseIntArrayListAttach&#45;&gt;UseIntArrayList -->
<g id="edge35" class="edge">
<title>UseIntArrayListAttach&#45;&gt;UseIntArrayList</title>
<path fill="none" stroke="black" d="M679.03,-237C684.9,-237 702.73,-237 722.65,-237"/>
<polygon fill="black" stroke="black" points="722.88,-240.5 732.88,-237 722.88,-233.5 722.88,-240.5"/>
<text text-anchor="middle" x="705.9" y="-243.4" font-family="Helvetica,sans-Serif" font-size="12.00">IntList</text>
</g>
<!-- UseLongArrayListAttach -->
<g id="node35" class="node">
<title>UseLongArrayListAttach</title>
<ellipse fill="black" stroke="black" cx="677" cy="-164" rx="1.8" ry="1.8"/>
</g>
<!-- UseIntArrayListAttach&#45;&gt;UseLongArrayListAttach -->
<g id="edge36" class="edge">
<title>UseIntArrayListAttach&#45;&gt;UseLongArrayListAttach</title>
<path fill="none" stroke="black" d="M677,-235C677,-227.04 677,-174.27 677,-166.07"/>
</g>
<!-- UseLongArrayList -->
<g id="node36" class="node">
<title>UseLongArrayList</title>
<polygon fill="none" stroke="black" points="882,-182 746,-182 746,-146 882,-146 882,-182"/>
<text text-anchor="middle" x="814" y="-160.9" font-family="Helvetica,sans-Serif" font-size="12.00">new LongArrayList()</text>
</g>
<!-- UseLongArrayListAttach&#45;&gt;UseLongArrayList -->
<g id="edge37" class="edge">
<title>UseLongArrayListAttach&#45;&gt;UseLongArrayList</title>
<path fill="none" stroke="black" d="M678.94,-164C685.74,-164 709.54,-164 735.31,-164"/>
<polygon fill="black" stroke="black" points="735.63,-167.5 745.63,-164 735.63,-160.5 735.63,-167.5"/>
<text text-anchor="middle" x="712.4" y="-170.4" font-family="Helvetica,sans-Serif" font-size="12.00">LongList</text>
</g>
<!-- UseBitSetAttach -->
<g id="node37" class="node">
<title>UseBitSetAttach</title>
<ellipse fill="black" stroke="black" cx="677" cy="-91" rx="1.8" ry="1.8"/>
</g>
<!-- UseLongArrayListAttach&#45;&gt;UseBitSetAttach -->
<g id="edge38" class="edge">
<title>UseLongArrayListAttach&#45;&gt;UseBitSetAttach</title>
<path fill="none" stroke="black" d="M677,-162C677,-154.04 677,-101.27 677,-93.07"/>
</g>
<!-- UseBitSet -->
<g id="node38" class="node">
<title>UseBitSet</title>
<polygon fill="none" stroke="black" points="821.5,-109 732.5,-109 732.5,-73 821.5,-73 821.5,-109"/>
<text text-anchor="middle" x="777" y="-87.9" font-family="Helvetica,sans-Serif" font-size="12.00">new BitSet()</text>
</g>
<!-- UseBitSetAttach&#45;&gt;UseBitSet -->
<g id="edge39" class="edge">
<title>UseBitSetAttach&#45;&gt;UseBitSet</title>
<path fill="none" stroke="black" d="M679.09,-91C685.11,-91 703.28,-91 722.36,-91"/>
<polygon fill="black" stroke="black" points="722.36,-94.5 732.36,-91 722.36,-87.5 722.36,-94.5"/>
<text text-anchor="middle" x="705.65" y="-97.4" font-family="Helvetica,sans-Serif" font-size="12.00">BitSet</text>
</g>
<!-- OtherwiseAttach -->
<g id="node39" class="node">
<title>OtherwiseAttach</title>
<ellipse fill="black" stroke="black" cx="677" cy="-18" rx="1.8" ry="1.8"/>
</g>
<!-- UseBitSetAttach&#45;&gt;OtherwiseAttach -->
<g id="edge40" class="edge">
<title>UseBitSetAttach&#45;&gt;OtherwiseAttach</title>
<path fill="none" stroke="black" d="M677,-89C677,-81.04 677,-28.27 677,-20.07"/>
</g>
<!-- Otherwise -->
<g id="node40" class="node">
<title>Otherwise</title>
<polygon fill="none" stroke="black" points="821,-36 757,-36 757,0 821,0 821,-36"/>
<text text-anchor="middle" x="789" y="-14.9" font-family="Helvetica,sans-Serif" font-size="12.00">Use null</text>
</g>
<!-- OtherwiseAttach&#45;&gt;Otherwise -->
<g id="edge41" class="edge">
<title>OtherwiseAttach&#45;&gt;Otherwise</title>
<path fill="none" stroke="black" d="M678.94,-18C687.08,-18 719.28,-18 746.76,-18"/>
<polygon fill="black" stroke="black" points="747,-21.5 757,-18 747,-14.5 747,-21.5"/>
<text text-anchor="middle" x="717.9" y="-24.4" font-family="Helvetica,sans-Serif" font-size="12.00">Otherwise</text>
</g>
</g>
</svg>
