<?xml version="1.0" encoding="UTF-8" standalone="no"?>
<!DOCTYPE svg PUBLIC "-//W3C//DTD SVG 1.1//EN"
 "http://www.w3.org/Graphics/SVG/1.1/DTD/svg11.dtd">
<!-- Generated by graphviz version 2.43.0 (0)
 -->
<!-- Title: %3 Pages: 1 -->
<svg width="1467pt" height="1194pt"
 viewBox="0.00 0.00 1466.50 1194.00" xmlns="http://www.w3.org/2000/svg" xmlns:xlink="http://www.w3.org/1999/xlink">
<g id="graph0" class="graph" transform="scale(1 1) rotate(0) translate(4 1190)">
<title>%3</title>
<polygon fill="white" stroke="transparent" points="-4,4 -4,-1190 1462.5,-1190 1462.5,4 -4,4"/>
<!-- IsAnnotatedField -->
<g id="node1" class="node">
<title>IsAnnotatedField</title>
<polygon fill="none" stroke="black" points="961,-1186 687,-1148 961,-1110 1235,-1148 961,-1186"/>
<text text-anchor="middle" x="961" y="-1151.8" font-family="Times,serif" font-size="14.00">Is it in a field</text>
<text text-anchor="middle" x="961" y="-1136.8" font-family="Times,serif" font-size="14.00">annotated with @DefaultConstruct?</text>
</g>
<!-- WhatType -->
<g id="node2" class="node">
<title>WhatType</title>
<polygon fill="none" stroke="black" points="777,-1039 658.36,-1021 777,-1003 895.64,-1021 777,-1039"/>
<text text-anchor="middle" x="777" y="-1017.3" font-family="Times,serif" font-size="14.00">What type is it?</text>
</g>
<!-- IsAnnotatedField&#45;&gt;WhatType -->
<g id="edge7" class="edge">
<title>IsAnnotatedField&#45;&gt;WhatType</title>
<path fill="none" stroke="black" d="M915.52,-1116.1C881.38,-1092.91 835.64,-1061.83 806.24,-1041.86"/>
<polygon fill="black" stroke="black" points="807.91,-1038.77 797.67,-1036.04 803.97,-1044.56 807.91,-1038.77"/>
<text text-anchor="middle" x="891.5" y="-1080.8" font-family="Times,serif" font-size="14.00">No</text>
</g>
<!-- FieldHasComputeFunction -->
<g id="node3" class="node">
<title>FieldHasComputeFunction</title>
<polygon fill="none" stroke="black" points="1145,-1059 996,-1021 1145,-983 1294,-1021 1145,-1059"/>
<text text-anchor="middle" x="1145" y="-1024.8" font-family="Times,serif" font-size="14.00">Is there a</text>
<text text-anchor="middle" x="1145" y="-1009.8" font-family="Times,serif" font-size="14.00">compute function?</text>
</g>
<!-- IsAnnotatedField&#45;&gt;FieldHasComputeFunction -->
<g id="edge1" class="edge">
<title>IsAnnotatedField&#45;&gt;FieldHasComputeFunction</title>
<path fill="none" stroke="black" d="M1006.48,-1116.1C1033.97,-1097.43 1068.97,-1073.65 1096.92,-1054.67"/>
<polygon fill="black" stroke="black" points="1099.04,-1057.45 1105.35,-1048.94 1095.11,-1051.66 1099.04,-1057.45"/>
<text text-anchor="middle" x="1077.5" y="-1080.8" font-family="Times,serif" font-size="14.00">Yes</text>
</g>
<!-- IsInTailrec -->
<g id="node5" class="node">
<title>IsInTailrec</title>
<polygon fill="none" stroke="black" points="542,-932 327,-879 542,-826 757,-879 542,-932"/>
<text text-anchor="middle" x="542" y="-890.3" font-family="Times,serif" font-size="14.00">Is it in a field</text>
<text text-anchor="middle" x="542" y="-875.3" font-family="Times,serif" font-size="14.00">referencing a message type</text>
<text text-anchor="middle" x="542" y="-860.3" font-family="Times,serif" font-size="14.00">by tail recursion**?</text>
</g>
<!-- WhatType&#45;&gt;IsInTailrec -->
<g id="edge8" class="edge">
<title>WhatType&#45;&gt;IsInTailrec</title>
<path fill="none" stroke="black" d="M754.04,-1006.32C721.64,-987.02 661.09,-950.94 612.96,-922.27"/>
<polygon fill="black" stroke="black" points="614.51,-919.12 604.13,-917.01 610.93,-925.14 614.51,-919.12"/>
<text text-anchor="middle" x="713" y="-953.8" font-family="Times,serif" font-size="14.00">Message</text>
</g>
<!-- UseFirstEnumValueAttach -->
<g id="node21" class="node">
<title>UseFirstEnumValueAttach</title>
<ellipse fill="black" stroke="black" cx="777" cy="-879" rx="1.8" ry="1.8"/>
</g>
<!-- WhatType&#45;&gt;UseFirstEnumValueAttach -->
<g id="edge22" class="edge">
<title>WhatType&#45;&gt;UseFirstEnumValueAttach</title>
<path fill="none" stroke="black" d="M777,-1002.83C777,-967.79 777,-890.49 777,-880.97"/>
</g>
<!-- FieldIsMessageType -->
<g id="node4" class="node">
<title>FieldIsMessageType</title>
<polygon fill="none" stroke="black" points="1145,-917 1023,-879 1145,-841 1267,-879 1145,-917"/>
<text text-anchor="middle" x="1145" y="-882.8" font-family="Times,serif" font-size="14.00">Is it a</text>
<text text-anchor="middle" x="1145" y="-867.8" font-family="Times,serif" font-size="14.00">message type?</text>
</g>
<!-- FieldHasComputeFunction&#45;&gt;FieldIsMessageType -->
<g id="edge3" class="edge">
<title>FieldHasComputeFunction&#45;&gt;FieldIsMessageType</title>
<path fill="none" stroke="black" d="M1145,-982.85C1145,-965.84 1145,-945.49 1145,-927.39"/>
<polygon fill="black" stroke="black" points="1148.5,-927.32 1145,-917.32 1141.5,-927.32 1148.5,-927.32"/>
<text text-anchor="middle" x="1155.5" y="-953.8" font-family="Times,serif" font-size="14.00">No</text>
</g>
<!-- FieldUseComputeFunction -->
<g id="node10" class="node">
<title>FieldUseComputeFunction</title>
<polygon fill="none" stroke="black" points="1458.5,-897 1285.5,-897 1285.5,-861 1458.5,-861 1458.5,-897"/>
<text text-anchor="middle" x="1372" y="-875.3" font-family="Times,serif" font-size="14.00">Use compute function</text>
</g>
<!-- FieldHasComputeFunction&#45;&gt;FieldUseComputeFunction -->
<g id="edge2" class="edge">
<title>FieldHasComputeFunction&#45;&gt;FieldUseComputeFunction</title>
<path fill="none" stroke="black" d="M1187.7,-993.67C1230.32,-967.38 1295.13,-927.41 1335.45,-902.54"/>
<polygon fill="black" stroke="black" points="1337.49,-905.4 1344.16,-897.17 1333.81,-899.44 1337.49,-905.4"/>
<text text-anchor="middle" x="1271.5" y="-953.8" font-family="Times,serif" font-size="14.00">Yes</text>
</g>
<!-- FieldAssertMessageTypeIsParent -->
<g id="node11" class="node">
<title>FieldAssertMessageTypeIsParent</title>
<polygon fill="none" stroke="black" points="1195.5,-756 1052.5,-756 1052.5,-718 1195.5,-718 1195.5,-756"/>
<text text-anchor="middle" x="1124" y="-740.8" font-family="Times,serif" font-size="14.00">Assert type is</text>
<text text-anchor="middle" x="1124" y="-725.8" font-family="Times,serif" font-size="14.00">polymorphic base</text>
</g>
<!-- FieldIsMessageType&#45;&gt;FieldAssertMessageTypeIsParent -->
<g id="edge4" class="edge">
<title>FieldIsMessageType&#45;&gt;FieldAssertMessageTypeIsParent</title>
<path fill="none" stroke="black" d="M1139.65,-842.31C1136.1,-818.64 1131.5,-788.01 1128.21,-766.08"/>
<polygon fill="black" stroke="black" points="1131.66,-765.45 1126.71,-756.08 1124.73,-766.49 1131.66,-765.45"/>
<text text-anchor="middle" x="1147.5" y="-796.8" font-family="Times,serif" font-size="14.00">Yes</text>
</g>
<!-- FieldUseConstantValue -->
<g id="node13" class="node">
<title>FieldUseConstantValue</title>
<polygon fill="none" stroke="black" points="1342,-756 1214,-756 1214,-718 1342,-718 1342,-756"/>
<text text-anchor="middle" x="1278" y="-740.8" font-family="Times,serif" font-size="14.00">Use specified</text>
<text text-anchor="middle" x="1278" y="-725.8" font-family="Times,serif" font-size="14.00">constant value*</text>
</g>
<!-- FieldIsMessageType&#45;&gt;FieldUseConstantValue -->
<g id="edge6" class="edge">
<title>FieldIsMessageType&#45;&gt;FieldUseConstantValue</title>
<path fill="none" stroke="black" d="M1172.24,-849.33C1196.1,-824.21 1230.48,-788.03 1253.49,-763.8"/>
<polygon fill="black" stroke="black" points="1256.19,-766.04 1260.54,-756.38 1251.11,-761.22 1256.19,-766.04"/>
<text text-anchor="middle" x="1234.5" y="-796.8" font-family="Times,serif" font-size="14.00">No</text>
</g>
<!-- IsPolymorphicParent -->
<g id="node6" class="node">
<title>IsPolymorphicParent</title>
<polygon fill="none" stroke="black" points="444,-775 294,-737 444,-699 594,-737 444,-775"/>
<text text-anchor="middle" x="444" y="-740.8" font-family="Times,serif" font-size="14.00">Is it a</text>
<text text-anchor="middle" x="444" y="-725.8" font-family="Times,serif" font-size="14.00">polymorphic base?</text>
</g>
<!-- IsInTailrec&#45;&gt;IsPolymorphicParent -->
<g id="edge10" class="edge">
<title>IsInTailrec&#45;&gt;IsPolymorphicParent</title>
<path fill="none" stroke="black" d="M510.72,-833.32C498.3,-815.58 484.13,-795.32 472.05,-778.07"/>
<polygon fill="black" stroke="black" points="474.9,-776.04 466.3,-769.86 469.17,-780.06 474.9,-776.04"/>
<text text-anchor="middle" x="503.5" y="-796.8" font-family="Times,serif" font-size="14.00">No</text>
</g>
<!-- Null2 -->
<g id="node20" class="node">
<title>Null2</title>
<polygon fill="none" stroke="black" points="688,-755 612,-755 612,-719 688,-719 688,-755"/>
<text text-anchor="middle" x="650" y="-733.3" font-family="Times,serif" font-size="14.00">Use null</text>
</g>
<!-- IsInTailrec&#45;&gt;Null2 -->
<g id="edge9" class="edge">
<title>IsInTailrec&#45;&gt;Null2</title>
<path fill="none" stroke="black" d="M575.88,-834.09C593.87,-810.76 615.35,-782.91 630.54,-763.22"/>
<polygon fill="black" stroke="black" points="633.51,-765.11 636.84,-755.05 627.96,-760.83 633.51,-765.11"/>
<text text-anchor="middle" x="618.5" y="-796.8" font-family="Times,serif" font-size="14.00">Yes</text>
</g>
<!-- PolymorphicParentHasDefaultConstruct -->
<g id="node7" class="node">
<title>PolymorphicParentHasDefaultConstruct</title>
<polygon fill="none" stroke="black" points="200,-648 0,-610 200,-572 400,-610 200,-648"/>
<text text-anchor="middle" x="200" y="-613.8" font-family="Times,serif" font-size="14.00">Is the message annotated</text>
<text text-anchor="middle" x="200" y="-598.8" font-family="Times,serif" font-size="14.00">with @DefaultConstruct?</text>
</g>
<!-- IsPolymorphicParent&#45;&gt;PolymorphicParentHasDefaultConstruct -->
<g id="edge11" class="edge">
<title>IsPolymorphicParent&#45;&gt;PolymorphicParentHasDefaultConstruct</title>
<path fill="none" stroke="black" d="M395.5,-711.15C357.18,-691.52 303.42,-663.98 261.98,-642.75"/>
<polygon fill="black" stroke="black" points="263.56,-639.63 253.06,-638.18 260.37,-645.86 263.56,-639.63"/>
<text text-anchor="middle" x="349.5" y="-669.8" font-family="Times,serif" font-size="14.00">Yes</text>
</g>
<!-- IsPolymorphicChild -->
<g id="node8" class="node">
<title>IsPolymorphicChild</title>
<polygon fill="none" stroke="black" points="570,-648 418,-610 570,-572 722,-610 570,-648"/>
<text text-anchor="middle" x="570" y="-613.8" font-family="Times,serif" font-size="14.00">Is it a</text>
<text text-anchor="middle" x="570" y="-598.8" font-family="Times,serif" font-size="14.00">polymorphic child?</text>
</g>
<!-- IsPolymorphicParent&#45;&gt;IsPolymorphicChild -->
<g id="edge14" class="edge">
<title>IsPolymorphicParent&#45;&gt;IsPolymorphicChild</title>
<path fill="none" stroke="black" d="M473.86,-706.38C491.46,-688.91 513.89,-666.66 532.66,-648.05"/>
<polygon fill="black" stroke="black" points="535.28,-650.37 539.92,-640.84 530.35,-645.4 535.28,-650.37"/>
<text text-anchor="middle" x="525.5" y="-669.8" font-family="Times,serif" font-size="14.00">No</text>
</g>
<!-- UsePolymorphicSubtype -->
<g id="node14" class="node">
<title>UsePolymorphicSubtype</title>
<polygon fill="none" stroke="black" points="198.5,-487 21.5,-487 21.5,-449 198.5,-449 198.5,-487"/>
<text text-anchor="middle" x="110" y="-471.8" font-family="Times,serif" font-size="14.00">Default construct type</text>
<text text-anchor="middle" x="110" y="-456.8" font-family="Times,serif" font-size="14.00">specified in subType</text>
</g>
<!-- PolymorphicParentHasDefaultConstruct&#45;&gt;UsePolymorphicSubtype -->
<g id="edge12" class="edge">
<title>PolymorphicParentHasDefaultConstruct&#45;&gt;UsePolymorphicSubtype</title>
<path fill="none" stroke="black" d="M178.67,-575.82C162.98,-551.41 141.91,-518.64 127.27,-495.86"/>
<polygon fill="black" stroke="black" points="130.16,-493.88 121.8,-487.36 124.27,-497.67 130.16,-493.88"/>
<text text-anchor="middle" x="176.5" y="-542.8" font-family="Times,serif" font-size="14.00">Yes</text>
</g>
<!-- Null1 -->
<g id="node19" class="node">
<title>Null1</title>
<polygon fill="none" stroke="black" points="293,-486 217,-486 217,-450 293,-450 293,-486"/>
<text text-anchor="middle" x="255" y="-464.3" font-family="Times,serif" font-size="14.00">Use null</text>
</g>
<!-- PolymorphicParentHasDefaultConstruct&#45;&gt;Null1 -->
<g id="edge13" class="edge">
<title>PolymorphicParentHasDefaultConstruct&#45;&gt;Null1</title>
<path fill="none" stroke="black" d="M213.6,-574.39C223.14,-550.1 235.72,-518.08 244.5,-495.74"/>
<polygon fill="black" stroke="black" points="247.84,-496.8 248.24,-486.22 241.32,-494.24 247.84,-496.8"/>
<text text-anchor="middle" x="238.5" y="-542.8" font-family="Times,serif" font-size="14.00">No</text>
</g>
<!-- IsPolymorphicChildCompute -->
<g id="node9" class="node">
<title>IsPolymorphicChildCompute</title>
<polygon fill="none" stroke="black" points="526,-521 365,-468 526,-415 687,-468 526,-521"/>
<text text-anchor="middle" x="526" y="-479.3" font-family="Times,serif" font-size="14.00">Is the condition for</text>
<text text-anchor="middle" x="526" y="-464.3" font-family="Times,serif" font-size="14.00">this child a compute</text>
<text text-anchor="middle" x="526" y="-449.3" font-family="Times,serif" font-size="14.00">function?</text>
</g>
<!-- IsPolymorphicChild&#45;&gt;IsPolymorphicChildCompute -->
<g id="edge15" class="edge">
<title>IsPolymorphicChild&#45;&gt;IsPolymorphicChildCompute</title>
<path fill="none" stroke="black" d="M559.12,-574.39C554.51,-559.7 549,-542.2 543.82,-525.71"/>
<polygon fill="black" stroke="black" points="547.15,-524.64 540.82,-516.15 540.48,-526.74 547.15,-524.64"/>
<text text-anchor="middle" x="564.5" y="-542.8" font-family="Times,serif" font-size="14.00">Yes</text>
</g>
<!-- DefaultConstructFields -->
<g id="node18" class="node">
<title>DefaultConstructFields</title>
<polygon fill="none" stroke="black" points="741.5,-184 562.5,-184 562.5,-146 741.5,-146 741.5,-184"/>
<text text-anchor="middle" x="652" y="-168.8" font-family="Times,serif" font-size="14.00">Default construct all</text>
<text text-anchor="middle" x="652" y="-153.8" font-family="Times,serif" font-size="14.00">fields in message class</text>
</g>
<!-- IsPolymorphicChild&#45;&gt;DefaultConstructFields -->
<g id="edge21" class="edge">
<title>IsPolymorphicChild&#45;&gt;DefaultConstructFields</title>
<path fill="none" stroke="black" d="M622.35,-584.79C663.88,-561.57 715,-522.19 715,-469 715,-469 715,-469 715,-239 715,-219.79 702.34,-203.13 688.37,-190.6"/>
<polygon fill="black" stroke="black" points="690.47,-187.79 680.55,-184.07 685.99,-193.17 690.47,-187.79"/>
<text text-anchor="middle" x="725.5" y="-326.3" font-family="Times,serif" font-size="14.00">No</text>
</g>
<!-- DefaultConstructPolymorphicTypeField -->
<g id="node15" class="node">
<title>DefaultConstructPolymorphicTypeField</title>
<polygon fill="none" stroke="black" points="508.5,-356.5 367.5,-356.5 367.5,-303.5 508.5,-303.5 508.5,-356.5"/>
<text text-anchor="middle" x="438" y="-341.3" font-family="Times,serif" font-size="14.00">Default construct</text>
<text text-anchor="middle" x="438" y="-326.3" font-family="Times,serif" font-size="14.00">polymorphic type</text>
<text text-anchor="middle" x="438" y="-311.3" font-family="Times,serif" font-size="14.00">field</text>
</g>
<!-- IsPolymorphicChildCompute&#45;&gt;DefaultConstructPolymorphicTypeField -->
<g id="edge16" class="edge">
<title>IsPolymorphicChildCompute&#45;&gt;DefaultConstructPolymorphicTypeField</title>
<path fill="none" stroke="black" d="M498.16,-423.97C485.98,-405.15 471.88,-383.37 460.4,-365.62"/>
<polygon fill="black" stroke="black" points="463.03,-363.23 454.66,-356.74 457.15,-367.04 463.03,-363.23"/>
<text text-anchor="middle" x="492.5" y="-385.8" font-family="Times,serif" font-size="14.00">Yes</text>
</g>
<!-- PolymorphicTypeFieldConstant -->
<g id="node16" class="node">
<title>PolymorphicTypeFieldConstant</title>
<polygon fill="none" stroke="black" points="679,-364 527,-364 527,-296 679,-296 679,-364"/>
<text text-anchor="middle" x="603" y="-348.8" font-family="Times,serif" font-size="14.00">Use first specified</text>
<text text-anchor="middle" x="603" y="-333.8" font-family="Times,serif" font-size="14.00">constant value* for</text>
<text text-anchor="middle" x="603" y="-318.8" font-family="Times,serif" font-size="14.00">polymorphic type</text>
<text text-anchor="middle" x="603" y="-303.8" font-family="Times,serif" font-size="14.00">field</text>
</g>
<!-- IsPolymorphicChildCompute&#45;&gt;PolymorphicTypeFieldConstant -->
<g id="edge17" class="edge">
<title>IsPolymorphicChildCompute&#45;&gt;PolymorphicTypeFieldConstant</title>
<path fill="none" stroke="black" d="M551,-422.84C560.03,-406.9 570.19,-388.94 579.13,-373.17"/>
<polygon fill="black" stroke="black" points="582.34,-374.59 584.22,-364.16 576.25,-371.14 582.34,-374.59"/>
<text text-anchor="middle" x="584.5" y="-385.8" font-family="Times,serif" font-size="14.00">No</text>
</g>
<!-- FieldUsePolymorphicSubtype -->
<g id="node12" class="node">
<title>FieldUsePolymorphicSubtype</title>
<polygon fill="none" stroke="black" points="1212.5,-629 1035.5,-629 1035.5,-591 1212.5,-591 1212.5,-629"/>
<text text-anchor="middle" x="1124" y="-613.8" font-family="Times,serif" font-size="14.00">Default construct type</text>
<text text-anchor="middle" x="1124" y="-598.8" font-family="Times,serif" font-size="14.00">specified in subType</text>
</g>
<!-- FieldAssertMessageTypeIsParent&#45;&gt;FieldUsePolymorphicSubtype -->
<g id="edge5" class="edge">
<title>FieldAssertMessageTypeIsParent&#45;&gt;FieldUsePolymorphicSubtype</title>
<path fill="none" stroke="black" d="M1124,-717.82C1124,-697.27 1124,-663.55 1124,-639.49"/>
<polygon fill="black" stroke="black" points="1127.5,-639.2 1124,-629.2 1120.5,-639.2 1127.5,-639.2"/>
</g>
<!-- DefaultConstructOtherParentFields -->
<g id="node17" class="node">
<title>DefaultConstructOtherParentFields</title>
<polygon fill="none" stroke="black" points="677.5,-259 528.5,-259 528.5,-221 677.5,-221 677.5,-259"/>
<text text-anchor="middle" x="603" y="-243.8" font-family="Times,serif" font-size="14.00">Default construct</text>
<text text-anchor="middle" x="603" y="-228.8" font-family="Times,serif" font-size="14.00">other parent fields</text>
</g>
<!-- DefaultConstructPolymorphicTypeField&#45;&gt;DefaultConstructOtherParentFields -->
<g id="edge18" class="edge">
<title>DefaultConstructPolymorphicTypeField&#45;&gt;DefaultConstructOtherParentFields</title>
<path fill="none" stroke="black" d="M486.17,-303.31C509.58,-290.83 537.47,-275.95 560.14,-263.86"/>
<polygon fill="black" stroke="black" points="562,-266.83 569.18,-259.04 558.71,-260.65 562,-266.83"/>
</g>
<!-- PolymorphicTypeFieldConstant&#45;&gt;DefaultConstructOtherParentFields -->
<g id="edge19" class="edge">
<title>PolymorphicTypeFieldConstant&#45;&gt;DefaultConstructOtherParentFields</title>
<path fill="none" stroke="black" d="M603,-295.98C603,-287.2 603,-277.8 603,-269.3"/>
<polygon fill="black" stroke="black" points="606.5,-269.13 603,-259.13 599.5,-269.13 606.5,-269.13"/>
</g>
<!-- DefaultConstructOtherParentFields&#45;&gt;DefaultConstructFields -->
<g id="edge20" class="edge">
<title>DefaultConstructOtherParentFields&#45;&gt;DefaultConstructFields</title>
<path fill="none" stroke="black" d="M615.11,-220.96C620.88,-212.36 627.9,-201.9 634.26,-192.43"/>
<polygon fill="black" stroke="black" points="637.19,-194.34 639.86,-184.09 631.38,-190.44 637.19,-194.34"/>
</g>
<!-- UseFirstEnumValue -->
<g id="node22" class="node">
<title>UseFirstEnumValue</title>
<polygon fill="none" stroke="black" points="1004.5,-898 905.5,-898 905.5,-860 1004.5,-860 1004.5,-898"/>
<text text-anchor="middle" x="955" y="-882.8" font-family="Times,serif" font-size="14.00">Use first</text>
<text text-anchor="middle" x="955" y="-867.8" font-family="Times,serif" font-size="14.00">enum value</text>
</g>
<!-- UseFirstEnumValueAttach&#45;&gt;UseFirstEnumValue -->
<g id="edge23" class="edge">
<title>UseFirstEnumValueAttach&#45;&gt;UseFirstEnumValue</title>
<path fill="none" stroke="black" d="M779,-879C790.46,-879 848.91,-879 895.35,-879"/>
<polygon fill="black" stroke="black" points="895.36,-882.5 905.36,-879 895.36,-875.5 895.36,-882.5"/>
<text text-anchor="middle" x="842.15" y="-885.8" font-family="Times,serif" font-size="14.00">Network Enum</text>
</g>
<!-- UseZeroAttach -->
<g id="node23" class="node">
<title>UseZeroAttach</title>
<ellipse fill="black" stroke="black" cx="777" cy="-737" rx="1.8" ry="1.8"/>
</g>
<!-- UseFirstEnumValueAttach&#45;&gt;UseZeroAttach -->
<g id="edge24" class="edge">
<title>UseFirstEnumValueAttach&#45;&gt;UseZeroAttach</title>
<path fill="none" stroke="black" d="M777,-877.11C777,-865.74 777,-749.67 777,-738.81"/>
</g>
<!-- UseZero -->
<g id="node24" class="node">
<title>UseZero</title>
<polygon fill="none" stroke="black" points="916,-755 858,-755 858,-719 916,-719 916,-755"/>
<text text-anchor="middle" x="887" y="-733.3" font-family="Times,serif" font-size="14.00">Use 0</text>
</g>
<!-- UseZeroAttach&#45;&gt;UseZero -->
<g id="edge25" class="edge">
<title>UseZeroAttach&#45;&gt;UseZero</title>
<path fill="none" stroke="black" d="M778.91,-737C787.13,-737 820.34,-737 847.81,-737"/>
<polygon fill="black" stroke="black" points="847.99,-740.5 857.99,-737 847.99,-733.5 847.99,-740.5"/>
<text text-anchor="middle" x="818.4" y="-743.8" font-family="Times,serif" font-size="14.00">Numeric</text>
</g>
<!-- UseOptionalEmptyAttach -->
<g id="node25" class="node">
<title>UseOptionalEmptyAttach</title>
<ellipse fill="black" stroke="black" cx="777" cy="-610" rx="1.8" ry="1.8"/>
</g>
<!-- UseZeroAttach&#45;&gt;UseOptionalEmptyAttach -->
<g id="edge26" class="edge">
<title>UseZeroAttach&#45;&gt;UseOptionalEmptyAttach</title>
<path fill="none" stroke="black" d="M777,-734.6C777,-721.72 777,-624.36 777,-612.24"/>
</g>
<!-- UseOptionalEmpty -->
<g id="node26" class="node">
<title>UseOptionalEmpty</title>
<polygon fill="none" stroke="black" points="997,-628 893,-628 893,-592 997,-592 997,-628"/>
<text text-anchor="middle" x="945" y="-606.3" font-family="Times,serif" font-size="14.00">Use empty()</text>
</g>
<!-- UseOptionalEmptyAttach&#45;&gt;UseOptionalEmpty -->
<g id="edge27" class="edge">
<title>UseOptionalEmptyAttach&#45;&gt;UseOptionalEmpty</title>
<path fill="none" stroke="black" d="M778.89,-610C789.2,-610 839.84,-610 882.53,-610"/>
<polygon fill="black" stroke="black" points="882.62,-613.5 892.62,-610 882.62,-606.5 882.62,-613.5"/>
<text text-anchor="middle" x="835.9" y="-646.8" font-family="Times,serif" font-size="14.00">Optional</text>
<text text-anchor="middle" x="835.9" y="-631.8" font-family="Times,serif" font-size="14.00">OptionalInt</text>
<text text-anchor="middle" x="835.9" y="-616.8" font-family="Times,serif" font-size="14.00">OptionalLong</text>
</g>
<!-- UseEmptyArrayAttach -->
<g id="node27" class="node">
<title>UseEmptyArrayAttach</title>
<ellipse fill="black" stroke="black" cx="777" cy="-468" rx="1.8" ry="1.8"/>
</g>
<!-- UseOptionalEmptyAttach&#45;&gt;UseEmptyArrayAttach -->
<g id="edge28" class="edge">
<title>UseOptionalEmptyAttach&#45;&gt;UseEmptyArrayAttach</title>
<path fill="none" stroke="black" d="M777,-608.11C777,-596.74 777,-480.67 777,-469.81"/>
</g>
<!-- UseEmptyArray -->
<g id="node28" class="node">
<title>UseEmptyArray</title>
<polygon fill="none" stroke="black" points="973.5,-486 836.5,-486 836.5,-450 973.5,-450 973.5,-486"/>
<text text-anchor="middle" x="905" y="-464.3" font-family="Times,serif" font-size="14.00">Use empty array</text>
</g>
<!-- UseEmptyArrayAttach&#45;&gt;UseEmptyArray -->
<g id="edge29" class="edge">
<title>UseEmptyArrayAttach&#45;&gt;UseEmptyArray</title>
<path fill="none" stroke="black" d="M778.81,-468C784.69,-468 804.12,-468 826.04,-468"/>
<polygon fill="black" stroke="black" points="826.25,-471.5 836.25,-468 826.25,-464.5 826.25,-471.5"/>
<text text-anchor="middle" x="807.65" y="-474.8" font-family="Times,serif" font-size="14.00">Array</text>
</g>
<!-- UseArrayListAttach -->
<g id="node29" class="node">
<title>UseArrayListAttach</title>
<ellipse fill="black" stroke="black" cx="777" cy="-330" rx="1.8" ry="1.8"/>
</g>
<!-- UseEmptyArrayAttach&#45;&gt;UseArrayListAttach -->
<g id="edge30" class="edge">
<title>UseEmptyArrayAttach&#45;&gt;UseArrayListAttach</title>
<path fill="none" stroke="black" d="M777,-466.13C777,-455.27 777,-346.01 777,-332.39"/>
</g>
<!-- UseArrayList -->
<g id="node30" class="node">
<title>UseArrayList</title>
<polygon fill="none" stroke="black" points="976,-348 824,-348 824,-312 976,-312 976,-348"/>
<text text-anchor="middle" x="900" y="-326.3" font-family="Times,serif" font-size="14.00">new ArrayList&lt;&gt;()</text>
</g>
<!-- UseArrayListAttach&#45;&gt;UseArrayList -->
<g id="edge31" class="edge">
<title>UseArrayListAttach&#45;&gt;UseArrayList</title>
<path fill="none" stroke="black" d="M779.13,-330C784.15,-330 797.5,-330 813.59,-330"/>
<polygon fill="black" stroke="black" points="813.91,-333.5 823.91,-330 813.91,-326.5 813.91,-333.5"/>
<text text-anchor="middle" x="801.4" y="-336.8" font-family="Times,serif" font-size="14.00">List</text>
</g>
<!-- UseIntArrayListAttach -->
<g id="node31" class="node">
<title>UseIntArrayListAttach</title>
<ellipse fill="black" stroke="black" cx="777" cy="-240" rx="1.8" ry="1.8"/>
</g>
<!-- UseArrayListAttach&#45;&gt;UseIntArrayListAttach -->
<g id="edge32" class="edge">
<title>UseArrayListAttach&#45;&gt;UseIntArrayListAttach</title>
<path fill="none" stroke="black" d="M777,-328.01C777,-318.95 777,-250.4 777,-241.87"/>
</g>
<!-- UseIntArrayList -->
<g id="node32" class="node">
<title>UseIntArrayList</title>
<polygon fill="none" stroke="black" points="992,-258 844,-258 844,-222 992,-222 992,-258"/>
<text text-anchor="middle" x="918" y="-236.3" font-family="Times,serif" font-size="14.00">new IntArrayList()</text>
</g>
<!-- UseIntArrayListAttach&#45;&gt;UseIntArrayList -->
<g id="edge33" class="edge">
<title>UseIntArrayListAttach&#45;&gt;UseIntArrayList</title>
<path fill="none" stroke="black" d="M778.99,-240C785.7,-240 808.45,-240 833.66,-240"/>
<polygon fill="black" stroke="black" points="833.8,-243.5 843.8,-240 833.8,-236.5 833.8,-243.5"/>
<text text-anchor="middle" x="811.4" y="-246.8" font-family="Times,serif" font-size="14.00">IntList</text>
</g>
<!-- UseLongArrayListAttach -->
<g id="node33" class="node">
<title>UseLongArrayListAttach</title>
<ellipse fill="black" stroke="black" cx="777" cy="-165" rx="1.8" ry="1.8"/>
</g>
<!-- UseIntArrayListAttach&#45;&gt;UseLongArrayListAttach -->
<g id="edge34" class="edge">
<title>UseIntArrayListAttach&#45;&gt;UseLongArrayListAttach</title>
<path fill="none" stroke="black" d="M777,-238.18C777,-230.79 777,-175.68 777,-167.12"/>
</g>
<!-- UseLongArrayList -->
<g id="node34" class="node">
<title>UseLongArrayList</title>
<polygon fill="none" stroke="black" points="1022.5,-183 859.5,-183 859.5,-147 1022.5,-147 1022.5,-183"/>
<text text-anchor="middle" x="941" y="-161.3" font-family="Times,serif" font-size="14.00">new LongArrayList()</text>
</g>
<!-- UseLongArrayListAttach&#45;&gt;UseLongArrayList -->
<g id="edge35" class="edge">
<title>UseLongArrayListAttach&#45;&gt;UseLongArrayList</title>
<path fill="none" stroke="black" d="M778.84,-165C786.5,-165 816.91,-165 849.37,-165"/>
<polygon fill="black" stroke="black" points="849.48,-168.5 859.48,-165 849.48,-161.5 849.48,-168.5"/>
<text text-anchor="middle" x="819.15" y="-171.8" font-family="Times,serif" font-size="14.00">LongList</text>
</g>
<!-- UseBitSetAttach -->
<g id="node35" class="node">
<title>UseBitSetAttach</title>
<ellipse fill="black" stroke="black" cx="777" cy="-91" rx="1.8" ry="1.8"/>
</g>
<!-- UseLongArrayListAttach&#45;&gt;UseBitSetAttach -->
<g id="edge36" class="edge">
<title>UseLongArrayListAttach&#45;&gt;UseBitSetAttach</title>
<path fill="none" stroke="black" d="M777,-163.19C777,-155.9 777,-101.55 777,-93.1"/>
</g>
<!-- UseBitSet -->
<g id="node36" class="node">
<title>UseBitSet</title>
<polygon fill="none" stroke="black" points="948,-109 842,-109 842,-73 948,-73 948,-109"/>
<text text-anchor="middle" x="895" y="-87.3" font-family="Times,serif" font-size="14.00">new BitSet()</text>
</g>
<!-- UseBitSetAttach&#45;&gt;UseBitSet -->
<g id="edge37" class="edge">
<title>UseBitSetAttach&#45;&gt;UseBitSet</title>
<path fill="none" stroke="black" d="M779.05,-91C785.82,-91 808.42,-91 831.88,-91"/>
<polygon fill="black" stroke="black" points="831.95,-94.5 841.95,-91 831.95,-87.5 831.95,-94.5"/>
<text text-anchor="middle" x="810.4" y="-97.8" font-family="Times,serif" font-size="14.00">BitSet</text>
</g>
<!-- OtherwiseAttach -->
<g id="node37" class="node">
<title>OtherwiseAttach</title>
<ellipse fill="black" stroke="black" cx="777" cy="-18" rx="1.8" ry="1.8"/>
</g>
<!-- UseBitSetAttach&#45;&gt;OtherwiseAttach -->
<g id="edge38" class="edge">
<title>UseBitSetAttach&#45;&gt;OtherwiseAttach</title>
<path fill="none" stroke="black" d="M777,-89C777,-81.04 777,-28.27 777,-20.07"/>
</g>
<!-- Otherwise -->
<g id="node38" class="node">
<title>Otherwise</title>
<polygon fill="none" stroke="black" points="946,-36 870,-36 870,0 946,0 946,-36"/>
<text text-anchor="middle" x="908" y="-14.3" font-family="Times,serif" font-size="14.00">Use null</text>
</g>
<!-- OtherwiseAttach&#45;&gt;Otherwise -->
<g id="edge39" class="edge">
<title>OtherwiseAttach&#45;&gt;Otherwise</title>
<path fill="none" stroke="black" d="M778.85,-18C787.69,-18 826.52,-18 859.31,-18"/>
<polygon fill="black" stroke="black" points="859.7,-21.5 869.7,-18 859.7,-14.5 859.7,-21.5"/>
<text text-anchor="middle" x="824.4" y="-24.8" font-family="Times,serif" font-size="14.00">Otherwise</text>
</g>
</g>
</svg>
