<?xml version="1.0" encoding="UTF-8" standalone="no"?>
<!DOCTYPE svg PUBLIC "-//W3C//DTD SVG 1.1//EN"
 "http://www.w3.org/Graphics/SVG/1.1/DTD/svg11.dtd">
<!-- Generated by graphviz version 2.43.0 (0)
 -->
<!-- Title: %3 Pages: 1 -->
<svg width="460pt" height="404pt"
 viewBox="0.00 0.00 459.94 404.00" xmlns="http://www.w3.org/2000/svg" xmlns:xlink="http://www.w3.org/1999/xlink">
<g id="graph0" class="graph" transform="scale(1 1) rotate(0) translate(4 400)">
<title>%3</title>
<polygon fill="white" stroke="transparent" points="-4,4 -4,-400 455.94,-400 455.94,4 -4,4"/>
<!-- MessageA -->
<g id="node1" class="node">
<title>MessageA</title>
<polygon fill="none" stroke="black" points="236.44,-324 132.44,-324 132.44,-288 236.44,-288 236.44,-324"/>
<text text-anchor="middle" x="184.44" y="-302.3" font-family="Times,serif" font-size="14.00">Message (A)</text>
</g>
<!-- RecordTranslation -->
<g id="node6" class="node">
<title>RecordTranslation</title>
<ellipse fill="none" stroke="black" cx="184.44" cy="-234" rx="98.58" ry="18"/>
<text text-anchor="middle" x="184.44" y="-230.3" font-family="Times,serif" font-size="14.00">Record Translation</text>
</g>
<!-- MessageA&#45;&gt;RecordTranslation -->
<g id="edge2" class="edge">
<title>MessageA&#45;&gt;RecordTranslation</title>
<path fill="none" stroke="black" d="M184.44,-287.7C184.44,-279.98 184.44,-270.71 184.44,-262.11"/>
<polygon fill="black" stroke="black" points="187.94,-262.1 184.44,-252.1 180.94,-262.1 187.94,-262.1"/>
</g>
<!-- MessageB -->
<g id="node2" class="node">
<title>MessageB</title>
<polygon fill="none" stroke="black" points="138.94,-108 33.94,-108 33.94,-72 138.94,-72 138.94,-108"/>
<text text-anchor="middle" x="86.44" y="-86.3" font-family="Times,serif" font-size="14.00">Message (B)</text>
</g>
<!-- PostTranslation -->
<g id="node7" class="node">
<title>PostTranslation</title>
<ellipse fill="none" stroke="black" cx="86.44" cy="-18" rx="86.38" ry="18"/>
<text text-anchor="middle" x="86.44" y="-14.3" font-family="Times,serif" font-size="14.00">Post&#45;Translation</text>
</g>
<!-- MessageB&#45;&gt;PostTranslation -->
<g id="edge8" class="edge">
<title>MessageB&#45;&gt;PostTranslation</title>
<path fill="none" stroke="black" d="M86.44,-71.7C86.44,-63.98 86.44,-54.71 86.44,-46.11"/>
<polygon fill="black" stroke="black" points="89.94,-46.1 86.44,-36.1 82.94,-46.1 89.94,-46.1"/>
</g>
<!-- MessageC -->
<g id="node3" class="node">
<title>MessageC</title>
<polygon fill="none" stroke="black" points="312.44,-180 192.44,-180 192.44,-144 312.44,-144 312.44,-180"/>
<text text-anchor="middle" x="252.44" y="-158.3" font-family="Times,serif" font-size="14.00">Message (C[i])</text>
</g>
<!-- VariantConversion -->
<g id="node8" class="node">
<title>VariantConversion</title>
<ellipse fill="none" stroke="black" cx="282.44" cy="-90" rx="99.38" ry="18"/>
<text text-anchor="middle" x="282.44" y="-86.3" font-family="Times,serif" font-size="14.00">Variant Conversion</text>
</g>
<!-- MessageC&#45;&gt;VariantConversion -->
<g id="edge6" class="edge">
<title>MessageC&#45;&gt;VariantConversion</title>
<path fill="none" stroke="black" d="M259.86,-143.7C263.24,-135.81 267.31,-126.3 271.07,-117.55"/>
<polygon fill="black" stroke="black" points="274.39,-118.67 275.11,-108.1 267.96,-115.92 274.39,-118.67"/>
</g>
<!-- MessageD -->
<g id="node4" class="node">
<title>MessageD</title>
<polygon fill="none" stroke="black" points="451.94,-180 330.94,-180 330.94,-144 451.94,-144 451.94,-180"/>
<text text-anchor="middle" x="391.44" y="-158.3" font-family="Times,serif" font-size="14.00">Message (D[i])</text>
</g>
<!-- MessageD&#45;&gt;VariantConversion -->
<g id="edge7" class="edge">
<title>MessageD&#45;&gt;VariantConversion</title>
<path fill="none" stroke="black" d="M356.35,-138.46C340.65,-128.38 322.48,-116.71 308.08,-107.47"/>
<polygon fill="black" stroke="black" points="354.47,-141.42 364.78,-143.88 358.25,-135.53 354.47,-141.42"/>
</g>
<!-- PreTranslation -->
<g id="node5" class="node">
<title>PreTranslation</title>
<ellipse fill="none" stroke="black" cx="184.44" cy="-378" rx="82.59" ry="18"/>
<text text-anchor="middle" x="184.44" y="-374.3" font-family="Times,serif" font-size="14.00">Pre&#45;Translation</text>
</g>
<!-- PreTranslation&#45;&gt;MessageA -->
<g id="edge1" class="edge">
<title>PreTranslation&#45;&gt;MessageA</title>
<path fill="none" stroke="black" d="M184.44,-359.7C184.44,-351.98 184.44,-342.71 184.44,-334.11"/>
<polygon fill="black" stroke="black" points="187.94,-334.1 184.44,-324.1 180.94,-334.1 187.94,-334.1"/>
</g>
<!-- RecordTranslation&#45;&gt;MessageB -->
<g id="edge3" class="edge">
<title>RecordTranslation&#45;&gt;MessageB</title>
<path fill="none" stroke="black" d="M112.36,-221.57C88.28,-213.95 63.91,-201.22 49.44,-180 35.89,-160.13 49.22,-134.51 63.52,-115.87"/>
<polygon fill="black" stroke="black" points="66.25,-118.06 69.84,-108.09 60.82,-113.64 66.25,-118.06"/>
</g>
<!-- RecordTranslation&#45;&gt;MessageC -->
<g id="edge4" class="edge">
<title>RecordTranslation&#45;&gt;MessageC</title>
<path fill="none" stroke="black" d="M200.9,-216.05C209.22,-207.5 219.45,-196.96 228.61,-187.54"/>
<polygon fill="black" stroke="black" points="231.2,-189.89 235.66,-180.28 226.18,-185.01 231.2,-189.89"/>
</g>
<!-- RecordTranslation&#45;&gt;MessageD -->
<g id="edge5" class="edge">
<title>RecordTranslation&#45;&gt;MessageD</title>
<path fill="none" stroke="black" d="M238.66,-214.67C270.34,-203.95 310.05,-190.52 341.04,-180.04"/>
<polygon fill="black" stroke="black" points="237.46,-211.38 229.1,-217.9 239.7,-218.01 237.46,-211.38"/>
</g>
<!-- InvisNode -->
<!-- RecordTranslation&#45;&gt;InvisNode -->
<!-- InvisNode&#45;&gt;MessageB -->
</g>
</svg>
