<?xml version="1.0" encoding="UTF-8" standalone="no"?>
<!DOCTYPE svg PUBLIC "-//W3C//DTD SVG 1.1//EN"
 "http://www.w3.org/Graphics/SVG/1.1/DTD/svg11.dtd">
<!-- Generated by graphviz version 2.43.0 (0)
 -->
<!-- Title: %3 Pages: 1 -->
<svg width="389pt" height="404pt"
 viewBox="0.00 0.00 388.60 404.00" xmlns="http://www.w3.org/2000/svg" xmlns:xlink="http://www.w3.org/1999/xlink">
<g id="graph0" class="graph" transform="scale(1 1) rotate(0) translate(4 400)">
<title>%3</title>
<polygon fill="white" stroke="transparent" points="-4,4 -4,-400 384.6,-400 384.6,4 -4,4"/>
<!-- MessageA -->
<g id="node1" class="node">
<title>MessageA</title>
<polygon fill="none" stroke="black" points="195.1,-324 105.1,-324 105.1,-288 195.1,-288 195.1,-324"/>
<text text-anchor="middle" x="150.1" y="-302.9" font-family="Helvetica,sans-Serif" font-size="12.00">Message (A)</text>
</g>
<!-- RecordTranslation -->
<g id="node6" class="node">
<title>RecordTranslation</title>
<ellipse fill="none" stroke="black" cx="150.1" cy="-234" rx="77.63" ry="18"/>
<text text-anchor="middle" x="150.1" y="-230.9" font-family="Helvetica,sans-Serif" font-size="12.00">Record Translation</text>
</g>
<!-- MessageA&#45;&gt;RecordTranslation -->
<g id="edge2" class="edge">
<title>MessageA&#45;&gt;RecordTranslation</title>
<path fill="none" stroke="black" d="M150.1,-287.7C150.1,-279.98 150.1,-270.71 150.1,-262.11"/>
<polygon fill="black" stroke="black" points="153.6,-262.1 150.1,-252.1 146.6,-262.1 153.6,-262.1"/>
</g>
<!-- MessageB -->
<g id="node2" class="node">
<title>MessageB</title>
<polygon fill="none" stroke="black" points="112.1,-108 22.1,-108 22.1,-72 112.1,-72 112.1,-108"/>
<text text-anchor="middle" x="67.1" y="-86.9" font-family="Helvetica,sans-Serif" font-size="12.00">Message (B)</text>
</g>
<!-- PostTranslation -->
<g id="node7" class="node">
<title>PostTranslation</title>
<ellipse fill="none" stroke="black" cx="67.1" cy="-18" rx="67.2" ry="18"/>
<text text-anchor="middle" x="67.1" y="-14.9" font-family="Helvetica,sans-Serif" font-size="12.00">Post&#45;Translation</text>
</g>
<!-- MessageB&#45;&gt;PostTranslation -->
<g id="edge8" class="edge">
<title>MessageB&#45;&gt;PostTranslation</title>
<path fill="none" stroke="black" d="M67.1,-71.7C67.1,-63.98 67.1,-54.71 67.1,-46.11"/>
<polygon fill="black" stroke="black" points="70.6,-46.1 67.1,-36.1 63.6,-46.1 70.6,-46.1"/>
</g>
<!-- MessageC -->
<g id="node3" class="node">
<title>MessageC</title>
<polygon fill="none" stroke="black" points="259.1,-180 157.1,-180 157.1,-144 259.1,-144 259.1,-180"/>
<text text-anchor="middle" x="208.1" y="-158.9" font-family="Helvetica,sans-Serif" font-size="12.00">Message (C[i])</text>
</g>
<!-- VariantConversion -->
<g id="node8" class="node">
<title>VariantConversion</title>
<ellipse fill="none" stroke="black" cx="233.1" cy="-90" rx="80.05" ry="18"/>
<text text-anchor="middle" x="233.1" y="-86.9" font-family="Helvetica,sans-Serif" font-size="12.00">Variant Conversion</text>
</g>
<!-- MessageC&#45;&gt;VariantConversion -->
<g id="edge6" class="edge">
<title>MessageC&#45;&gt;VariantConversion</title>
<path fill="none" stroke="black" d="M214.28,-143.7C217.09,-135.81 220.49,-126.3 223.62,-117.55"/>
<polygon fill="black" stroke="black" points="226.92,-118.7 226.99,-108.1 220.33,-116.34 226.92,-118.7"/>
</g>
<!-- MessageD -->
<g id="node4" class="node">
<title>MessageD</title>
<polygon fill="none" stroke="black" points="380.6,-180 277.6,-180 277.6,-144 380.6,-144 380.6,-180"/>
<text text-anchor="middle" x="329.1" y="-158.9" font-family="Helvetica,sans-Serif" font-size="12.00">Message (D[i])</text>
</g>
<!-- MessageD&#45;&gt;VariantConversion -->
<g id="edge7" class="edge">
<title>MessageD&#45;&gt;VariantConversion</title>
<path fill="none" stroke="black" d="M297.18,-137.73C283.55,-127.78 267.96,-116.42 255.57,-107.38"/>
<polygon fill="black" stroke="black" points="295.23,-140.63 305.37,-143.7 299.35,-134.98 295.23,-140.63"/>
</g>
<!-- PreTranslation -->
<g id="node5" class="node">
<title>PreTranslation</title>
<ellipse fill="none" stroke="black" cx="150.1" cy="-378" rx="63.31" ry="18"/>
<text text-anchor="middle" x="150.1" y="-374.9" font-family="Helvetica,sans-Serif" font-size="12.00">Pre&#45;Translation</text>
</g>
<!-- PreTranslation&#45;&gt;MessageA -->
<g id="edge1" class="edge">
<title>PreTranslation&#45;&gt;MessageA</title>
<path fill="none" stroke="black" d="M150.1,-359.7C150.1,-351.98 150.1,-342.71 150.1,-334.11"/>
<polygon fill="black" stroke="black" points="153.6,-334.1 150.1,-324.1 146.6,-334.1 153.6,-334.1"/>
</g>
<!-- RecordTranslation&#45;&gt;MessageB -->
<g id="edge3" class="edge">
<title>RecordTranslation&#45;&gt;MessageB</title>
<path fill="none" stroke="black" d="M96.18,-220.98C74.24,-213.16 51.04,-200.45 38.1,-180 25.77,-160.53 36,-135.32 47.58,-116.71"/>
<polygon fill="black" stroke="black" points="50.64,-118.42 53.27,-108.15 44.82,-114.54 50.64,-118.42"/>
</g>
<!-- RecordTranslation&#45;&gt;MessageC -->
<g id="edge4" class="edge">
<title>RecordTranslation&#45;&gt;MessageC</title>
<path fill="none" stroke="black" d="M164.14,-216.05C171.09,-207.67 179.62,-197.38 187.3,-188.1"/>
<polygon fill="black" stroke="black" points="190.1,-190.21 193.79,-180.28 184.71,-185.74 190.1,-190.21"/>
</g>
<!-- RecordTranslation&#45;&gt;MessageD -->
<g id="edge5" class="edge">
<title>RecordTranslation&#45;&gt;MessageD</title>
<path fill="none" stroke="black" d="M197.42,-214.5C224.74,-203.81 258.86,-190.47 285.53,-180.04"/>
<polygon fill="black" stroke="black" points="196.1,-211.25 188.06,-218.15 198.65,-217.77 196.1,-211.25"/>
</g>
<!-- InvisNode -->
<!-- RecordTranslation&#45;&gt;InvisNode -->
<!-- InvisNode&#45;&gt;MessageB -->
</g>
</svg>
